<svg xmlns="http://www.w3.org/2000/svg" xmlns:xlink="http://www.w3.org/1999/xlink" width="40" zoomAndPan="magnify" viewBox="0 0 30 30.000001" height="40" preserveAspectRatio="xMidYMid meet" version="1.0"><defs><g/><clipPath id="ab28a380d9"><path d="M 0.488281 9.675781 L 29.511719 9.675781 L 29.511719 18.359375 L 0.488281 18.359375 Z M 0.488281 9.675781 " clip-rule="nonzero"/></clipPath><clipPath id="89727c3bd4"><path d="M 13 7.222656 L 16 7.222656 L 16 9 L 13 9 Z M 13 7.222656 " clip-rule="nonzero"/></clipPath><clipPath id="864473b700"><path d="M 10.363281 18.496094 L 18.0625 18.496094 L 18.0625 21.738281 L 10.363281 21.738281 Z M 10.363281 18.496094 " clip-rule="nonzero"/></clipPath></defs><g clip-path="url(#ab28a380d9)"><path fill="#000000" d="M 28.875 9.75 C 28.660156 9.722656 28.445312 9.703125 28.230469 9.695312 C 28.015625 9.6875 27.800781 9.6875 27.585938 9.695312 C 27.375 9.703125 27.164062 9.722656 26.953125 9.746094 C 26.109375 9.839844 25.292969 10.046875 24.503906 10.296875 C 23.71875 10.542969 22.953125 10.839844 22.199219 11.128906 L 21.632812 11.347656 C 21.445312 11.421875 21.257812 11.492188 21.070312 11.5625 C 20.695312 11.703125 20.320312 11.835938 19.941406 11.964844 C 19.5625 12.09375 19.179688 12.214844 18.800781 12.332031 C 18.417969 12.445312 18.035156 12.550781 17.648438 12.648438 C 16.878906 12.839844 16.097656 12.996094 15.316406 13.09375 C 15.21875 13.109375 15.117188 13.121094 15.019531 13.128906 C 14.921875 13.140625 14.828125 13.148438 14.726562 13.160156 L 14.578125 13.171875 L 14.539062 13.175781 L 14.503906 13.179688 L 14.429688 13.183594 L 14.285156 13.195312 L 14.136719 13.203125 C 13.742188 13.222656 13.347656 13.226562 12.957031 13.214844 C 12.5625 13.203125 12.167969 13.175781 11.78125 13.128906 C 11.683594 13.117188 11.585938 13.105469 11.488281 13.089844 L 11.34375 13.066406 L 11.125 13.03125 L 11.050781 13.019531 L 10.90625 12.992188 L 10.761719 12.960938 C 10.714844 12.953125 10.667969 12.941406 10.617188 12.929688 L 10.476562 12.898438 L 10.332031 12.863281 C 10.238281 12.84375 10.144531 12.816406 10.046875 12.789062 C 9.859375 12.738281 9.671875 12.679688 9.488281 12.617188 C 9.117188 12.492188 8.753906 12.347656 8.398438 12.179688 C 8.355469 12.160156 8.3125 12.136719 8.265625 12.117188 C 8.222656 12.09375 8.179688 12.074219 8.136719 12.050781 L 8.007812 11.984375 C 7.984375 11.972656 7.964844 11.960938 7.941406 11.949219 L 7.753906 11.84375 L 7.621094 11.765625 L 7.558594 11.726562 L 7.5 11.691406 C 7.457031 11.664062 7.414062 11.640625 7.375 11.613281 C 7.042969 11.402344 6.714844 11.167969 6.378906 10.9375 C 6.210938 10.820312 6.039062 10.707031 5.867188 10.59375 L 5.601562 10.429688 L 5.460938 10.351562 C 5.4375 10.335938 5.417969 10.324219 5.394531 10.3125 L 5.328125 10.277344 C 4.949219 10.070312 4.539062 9.914062 4.109375 9.832031 C 3.683594 9.753906 3.238281 9.753906 2.8125 9.832031 C 2.785156 9.839844 2.757812 9.84375 2.730469 9.851562 L 2.648438 9.867188 L 2.574219 9.886719 L 2.554688 9.890625 L 2.535156 9.898438 C 2.519531 9.902344 2.507812 9.90625 2.492188 9.910156 C 2.386719 9.941406 2.28125 9.976562 2.179688 10.019531 C 1.980469 10.105469 1.785156 10.214844 1.609375 10.34375 C 1.433594 10.472656 1.269531 10.621094 1.128906 10.789062 C 0.984375 10.953125 0.859375 11.136719 0.761719 11.328125 C 0.660156 11.523438 0.585938 11.734375 0.539062 11.949219 C 0.492188 12.164062 0.480469 12.386719 0.496094 12.605469 C 0.535156 13.042969 0.699219 13.460938 0.941406 13.8125 C 1.1875 14.164062 1.511719 14.457031 1.882812 14.660156 C 2.253906 14.867188 2.671875 14.988281 3.097656 14.988281 L 3.15625 14.988281 L 3.175781 14.984375 C 3.203125 14.984375 3.230469 14.984375 3.253906 14.980469 C 3.308594 14.976562 3.359375 14.972656 3.414062 14.964844 C 3.515625 14.949219 3.621094 14.929688 3.71875 14.902344 C 3.921875 14.84375 4.117188 14.761719 4.296875 14.660156 C 4.476562 14.558594 4.644531 14.433594 4.796875 14.292969 C 4.949219 14.15625 5.082031 14 5.199219 13.828125 C 5.3125 13.660156 5.40625 13.476562 5.480469 13.285156 C 5.550781 13.09375 5.59375 12.894531 5.609375 12.691406 C 5.550781 13.09375 5.382812 13.46875 5.140625 13.785156 C 4.894531 14.101562 4.582031 14.363281 4.230469 14.539062 C 3.878906 14.714844 3.488281 14.808594 3.101562 14.789062 C 3.054688 14.785156 3.003906 14.78125 2.957031 14.777344 C 2.910156 14.769531 2.863281 14.761719 2.8125 14.753906 C 2.71875 14.738281 2.625 14.710938 2.535156 14.683594 C 2.351562 14.625 2.175781 14.542969 2.011719 14.441406 C 1.847656 14.339844 1.695312 14.21875 1.558594 14.085938 C 1.421875 13.953125 1.300781 13.800781 1.199219 13.640625 C 0.996094 13.320312 0.871094 12.953125 0.855469 12.582031 C 0.847656 12.398438 0.867188 12.210938 0.910156 12.035156 C 0.957031 11.855469 1.027344 11.683594 1.117188 11.519531 C 1.296875 11.195312 1.5625 10.917969 1.867188 10.710938 C 2.023438 10.609375 2.1875 10.519531 2.359375 10.453125 C 2.445312 10.421875 2.53125 10.394531 2.621094 10.371094 C 2.632812 10.367188 2.644531 10.367188 2.652344 10.363281 L 2.671875 10.359375 L 2.683594 10.355469 L 2.757812 10.339844 L 2.824219 10.328125 C 2.847656 10.324219 2.871094 10.320312 2.894531 10.316406 C 3.265625 10.257812 3.644531 10.269531 4.007812 10.351562 C 4.371094 10.429688 4.722656 10.574219 5.050781 10.765625 L 5.113281 10.804688 C 5.136719 10.816406 5.160156 10.832031 5.179688 10.84375 L 5.300781 10.917969 L 5.425781 11 L 5.546875 11.082031 C 5.710938 11.191406 5.871094 11.308594 6.035156 11.425781 C 6.359375 11.660156 6.683594 11.90625 7.027344 12.136719 C 7.070312 12.167969 7.113281 12.195312 7.160156 12.226562 L 7.226562 12.269531 L 7.292969 12.308594 L 7.421875 12.390625 L 7.558594 12.472656 L 7.625 12.511719 C 7.648438 12.523438 7.671875 12.539062 7.695312 12.550781 L 7.832031 12.625 C 7.878906 12.652344 7.921875 12.675781 7.96875 12.699219 C 8.015625 12.726562 8.0625 12.75 8.109375 12.773438 L 8.25 12.84375 C 8.296875 12.863281 8.34375 12.886719 8.390625 12.910156 C 8.484375 12.953125 8.582031 12.996094 8.675781 13.039062 C 8.871094 13.117188 9.0625 13.195312 9.261719 13.265625 C 9.457031 13.339844 9.65625 13.402344 9.855469 13.464844 C 9.953125 13.492188 10.054688 13.523438 10.15625 13.546875 L 10.304688 13.589844 L 10.457031 13.625 C 10.507812 13.640625 10.558594 13.652344 10.609375 13.660156 L 10.761719 13.695312 L 10.914062 13.726562 L 11.070312 13.757812 L 11.375 13.8125 C 11.480469 13.828125 11.582031 13.84375 11.683594 13.859375 C 12.097656 13.914062 12.511719 13.953125 12.925781 13.972656 C 13.03125 13.976562 13.132812 13.984375 13.238281 13.984375 L 13.394531 13.988281 L 13.546875 13.988281 C 13.652344 13.992188 13.757812 13.988281 13.859375 13.988281 C 13.964844 13.984375 14.066406 13.984375 14.171875 13.980469 L 14.328125 13.972656 L 14.480469 13.964844 L 14.636719 13.957031 L 14.789062 13.945312 C 14.890625 13.9375 15 13.929688 15.101562 13.917969 C 15.203125 13.90625 15.308594 13.898438 15.410156 13.886719 C 16.230469 13.792969 17.042969 13.640625 17.84375 13.453125 C 18.644531 13.261719 19.433594 13.03125 20.210938 12.773438 C 20.597656 12.644531 20.984375 12.507812 21.367188 12.367188 C 21.558594 12.300781 21.75 12.226562 21.941406 12.15625 L 22.507812 11.941406 C 23.265625 11.652344 24.011719 11.371094 24.769531 11.132812 C 25.050781 11.046875 25.332031 10.964844 25.613281 10.894531 C 25.417969 11.003906 25.226562 11.125 25.042969 11.246094 C 24.722656 11.457031 24.417969 11.679688 24.121094 11.914062 C 24.046875 11.972656 23.972656 12.03125 23.898438 12.09375 L 23.789062 12.183594 L 23.683594 12.273438 C 23.613281 12.332031 23.539062 12.394531 23.46875 12.453125 L 23.257812 12.636719 C 22.699219 13.125 22.15625 13.625 21.609375 14.105469 C 21.0625 14.585938 20.507812 15.046875 19.921875 15.453125 C 19.773438 15.554688 19.628906 15.65625 19.476562 15.75 C 19.441406 15.773438 19.402344 15.796875 19.363281 15.820312 L 19.25 15.890625 C 19.171875 15.933594 19.09375 15.984375 19.015625 16.027344 C 18.859375 16.121094 18.703125 16.210938 18.546875 16.296875 C 18.386719 16.386719 18.230469 16.472656 18.070312 16.554688 C 17.433594 16.882812 16.777344 17.167969 16.097656 17.371094 C 15.421875 17.570312 14.722656 17.683594 14.019531 17.6875 C 13.976562 17.691406 13.933594 17.6875 13.890625 17.6875 C 13.84375 17.6875 13.800781 17.6875 13.757812 17.6875 L 13.492188 17.671875 L 13.363281 17.664062 L 13.164062 17.644531 L 13.148438 17.640625 C 13.148438 17.640625 13.140625 17.640625 13.144531 17.640625 L 13.132812 17.640625 L 13.101562 17.636719 C 13.054688 17.628906 13.007812 17.625 12.96875 17.617188 C 12.882812 17.605469 12.796875 17.589844 12.710938 17.574219 C 12.667969 17.566406 12.625 17.558594 12.582031 17.550781 C 12.539062 17.542969 12.496094 17.53125 12.453125 17.523438 C 12.28125 17.480469 12.113281 17.433594 11.949219 17.378906 C 11.617188 17.273438 11.296875 17.132812 10.988281 16.964844 C 10.679688 16.796875 10.386719 16.601562 10.109375 16.382812 C 9.832031 16.164062 9.566406 15.921875 9.316406 15.664062 C 9.066406 15.410156 8.828125 15.136719 8.597656 14.859375 C 8.367188 14.578125 8.144531 14.289062 7.925781 13.996094 L 7.59375 13.554688 L 7.511719 13.445312 C 7.484375 13.410156 7.457031 13.371094 7.429688 13.335938 C 7.378906 13.265625 7.324219 13.191406 7.273438 13.117188 C 7.0625 12.816406 6.851562 12.511719 6.621094 12.214844 C 6.589844 12.175781 6.5625 12.140625 6.53125 12.101562 C 6.503906 12.066406 6.472656 12.027344 6.441406 11.992188 L 6.394531 11.9375 L 6.347656 11.886719 C 6.316406 11.847656 6.285156 11.816406 6.25 11.78125 C 6.121094 11.640625 5.980469 11.511719 5.828125 11.390625 C 5.527344 11.148438 5.183594 10.953125 4.800781 10.851562 C 4.777344 10.847656 4.757812 10.839844 4.730469 10.835938 L 4.695312 10.828125 L 4.65625 10.820312 C 4.609375 10.8125 4.558594 10.804688 4.511719 10.796875 C 4.414062 10.789062 4.316406 10.785156 4.214844 10.785156 C 4.019531 10.792969 3.824219 10.828125 3.636719 10.894531 C 3.453125 10.957031 3.277344 11.054688 3.125 11.1875 C 3.050781 11.25 2.980469 11.320312 2.921875 11.402344 C 2.863281 11.484375 2.8125 11.570312 2.777344 11.664062 C 2.699219 11.84375 2.664062 12.042969 2.671875 12.238281 C 2.675781 12.433594 2.726562 12.628906 2.824219 12.796875 C 2.871094 12.882812 2.933594 12.960938 3.003906 13.027344 C 3.039062 13.0625 3.078125 13.09375 3.117188 13.117188 C 3.160156 13.148438 3.203125 13.171875 3.246094 13.191406 C 3.425781 13.269531 3.628906 13.277344 3.8125 13.238281 C 4 13.199219 4.175781 13.113281 4.308594 12.984375 C 4.378906 12.917969 4.433594 12.839844 4.472656 12.757812 C 4.511719 12.671875 4.535156 12.578125 4.535156 12.488281 C 4.527344 12.578125 4.5 12.667969 4.457031 12.75 C 4.414062 12.828125 4.355469 12.898438 4.285156 12.957031 C 4.148438 13.074219 3.976562 13.148438 3.800781 13.171875 C 3.625 13.199219 3.441406 13.179688 3.289062 13.101562 C 3.25 13.082031 3.210938 13.058594 3.179688 13.035156 C 3.144531 13.007812 3.113281 12.976562 3.082031 12.945312 C 3.023438 12.882812 2.972656 12.8125 2.9375 12.738281 C 2.859375 12.582031 2.824219 12.410156 2.828125 12.234375 C 2.832031 12.0625 2.871094 11.890625 2.945312 11.738281 C 2.980469 11.660156 3.027344 11.589844 3.078125 11.523438 C 3.132812 11.460938 3.195312 11.402344 3.261719 11.347656 C 3.394531 11.242188 3.546875 11.167969 3.710938 11.117188 C 3.875 11.070312 4.046875 11.046875 4.21875 11.050781 C 4.304688 11.050781 4.390625 11.058594 4.476562 11.070312 C 4.515625 11.078125 4.558594 11.085938 4.601562 11.097656 L 4.632812 11.101562 L 4.660156 11.109375 C 4.679688 11.117188 4.703125 11.121094 4.722656 11.128906 L 4.734375 11.132812 C 4.738281 11.132812 4.734375 11.132812 4.738281 11.132812 L 4.753906 11.136719 L 4.785156 11.148438 L 4.84375 11.171875 C 4.886719 11.1875 4.925781 11.203125 4.964844 11.21875 C 5.042969 11.253906 5.121094 11.296875 5.195312 11.339844 C 5.34375 11.425781 5.484375 11.53125 5.617188 11.644531 C 5.75 11.761719 5.871094 11.886719 5.988281 12.019531 C 6.015625 12.054688 6.046875 12.089844 6.074219 12.121094 L 6.117188 12.171875 L 6.128906 12.1875 L 6.136719 12.199219 L 6.15625 12.226562 C 6.1875 12.261719 6.210938 12.296875 6.238281 12.332031 C 6.265625 12.367188 6.292969 12.402344 6.320312 12.441406 C 6.53125 12.730469 6.722656 13.039062 6.925781 13.351562 C 6.976562 13.429688 7.027344 13.507812 7.082031 13.585938 C 7.105469 13.625 7.132812 13.660156 7.160156 13.699219 L 7.238281 13.8125 L 7.558594 14.265625 C 7.769531 14.566406 7.988281 14.867188 8.214844 15.164062 C 8.441406 15.457031 8.683594 15.75 8.9375 16.027344 C 9.195312 16.304688 9.46875 16.566406 9.761719 16.8125 C 10.054688 17.054688 10.367188 17.277344 10.703125 17.472656 C 11.035156 17.664062 11.386719 17.832031 11.75 17.960938 C 11.933594 18.023438 12.117188 18.078125 12.304688 18.128906 C 12.351562 18.140625 12.398438 18.152344 12.445312 18.164062 C 12.492188 18.175781 12.539062 18.183594 12.585938 18.195312 C 12.679688 18.214844 12.773438 18.230469 12.875 18.246094 C 12.921875 18.257812 12.964844 18.261719 13.011719 18.269531 L 13.046875 18.273438 L 13.085938 18.28125 L 13.15625 18.289062 L 13.296875 18.308594 L 13.441406 18.320312 L 13.511719 18.328125 L 13.585938 18.332031 L 13.730469 18.34375 C 13.777344 18.34375 13.824219 18.347656 13.871094 18.347656 C 13.921875 18.351562 13.96875 18.351562 14.015625 18.351562 C 14.113281 18.355469 14.210938 18.355469 14.304688 18.351562 C 14.351562 18.351562 14.402344 18.351562 14.449219 18.347656 L 14.59375 18.34375 C 14.640625 18.339844 14.6875 18.335938 14.738281 18.332031 C 14.785156 18.328125 14.832031 18.324219 14.882812 18.320312 C 14.976562 18.308594 15.074219 18.300781 15.167969 18.289062 C 15.359375 18.261719 15.546875 18.230469 15.734375 18.191406 C 15.828125 18.171875 15.921875 18.152344 16.015625 18.128906 C 16.109375 18.109375 16.203125 18.082031 16.292969 18.058594 C 17.03125 17.855469 17.738281 17.566406 18.414062 17.230469 C 18.582031 17.148438 18.746094 17.0625 18.914062 16.972656 C 19.078125 16.882812 19.242188 16.796875 19.40625 16.703125 C 19.488281 16.65625 19.566406 16.609375 19.648438 16.5625 L 19.769531 16.492188 C 19.8125 16.46875 19.851562 16.441406 19.894531 16.417969 C 20.054688 16.320312 20.214844 16.214844 20.371094 16.109375 C 21 15.683594 21.582031 15.210938 22.148438 14.726562 C 22.710938 14.242188 23.257812 13.75 23.8125 13.277344 L 24.226562 12.925781 L 24.4375 12.753906 C 24.507812 12.699219 24.578125 12.644531 24.648438 12.589844 C 24.929688 12.371094 25.21875 12.164062 25.515625 11.96875 C 26.109375 11.582031 26.734375 11.253906 27.386719 11.03125 C 27.710938 10.917969 28.042969 10.835938 28.378906 10.785156 C 28.714844 10.734375 29.050781 10.714844 29.386719 10.734375 L 29.511719 9.867188 C 29.300781 9.816406 29.089844 9.78125 28.875 9.75 " fill-opacity="1" fill-rule="nonzero"/></g><path fill="#000000" d="M 8.464844 11.601562 C 8.476562 11.605469 8.488281 11.605469 8.5 11.609375 C 8.511719 11.613281 8.527344 11.617188 8.539062 11.617188 C 8.554688 11.621094 8.566406 11.625 8.582031 11.628906 C 8.597656 11.628906 8.613281 11.632812 8.628906 11.636719 C 8.695312 11.648438 8.769531 11.65625 8.855469 11.660156 C 9.027344 11.671875 9.238281 11.667969 9.476562 11.628906 C 9.710938 11.589844 9.976562 11.519531 10.253906 11.417969 C 10.527344 11.320312 10.816406 11.1875 11.109375 11.042969 C 11.402344 10.898438 11.699219 10.738281 12.007812 10.582031 C 12.3125 10.429688 12.628906 10.273438 12.949219 10.144531 C 13.105469 10.078125 13.265625 10.023438 13.425781 9.976562 L 13.484375 9.957031 L 13.542969 9.945312 C 13.5625 9.9375 13.578125 9.933594 13.597656 9.929688 L 13.621094 9.925781 C 13.625 9.921875 13.632812 9.921875 13.636719 9.921875 L 13.65625 9.917969 C 13.734375 9.902344 13.816406 9.890625 13.894531 9.878906 C 14.21875 9.84375 14.535156 9.859375 14.855469 9.929688 C 15.175781 9.996094 15.492188 10.113281 15.8125 10.238281 C 15.851562 10.253906 15.890625 10.269531 15.929688 10.285156 C 15.96875 10.300781 16.003906 10.3125 16.039062 10.328125 C 16.074219 10.34375 16.109375 10.359375 16.148438 10.375 C 16.183594 10.394531 16.21875 10.410156 16.253906 10.425781 C 16.269531 10.4375 16.289062 10.445312 16.304688 10.453125 C 16.320312 10.460938 16.339844 10.472656 16.355469 10.480469 C 16.390625 10.496094 16.425781 10.515625 16.460938 10.535156 C 16.527344 10.574219 16.59375 10.613281 16.660156 10.652344 C 16.925781 10.808594 17.175781 10.976562 17.410156 11.128906 C 17.644531 11.285156 17.867188 11.425781 18.070312 11.542969 C 18.277344 11.65625 18.460938 11.746094 18.617188 11.8125 C 18.65625 11.828125 18.691406 11.84375 18.726562 11.855469 C 18.761719 11.871094 18.792969 11.882812 18.824219 11.894531 C 18.886719 11.914062 18.941406 11.929688 18.984375 11.945312 C 19.027344 11.957031 19.058594 11.964844 19.082031 11.96875 C 19.105469 11.976562 19.117188 11.980469 19.117188 11.980469 C 19.117188 11.980469 19.078125 11.949219 19.003906 11.898438 C 18.96875 11.871094 18.925781 11.839844 18.878906 11.800781 C 18.863281 11.789062 18.851562 11.777344 18.839844 11.769531 C 18.824219 11.757812 18.8125 11.746094 18.796875 11.734375 C 18.769531 11.710938 18.738281 11.6875 18.707031 11.660156 C 18.582031 11.554688 18.4375 11.425781 18.273438 11.269531 C 18.109375 11.113281 17.933594 10.929688 17.730469 10.734375 C 17.527344 10.535156 17.304688 10.320312 17.042969 10.105469 C 16.976562 10.054688 16.90625 10 16.835938 9.949219 C 16.800781 9.921875 16.765625 9.898438 16.730469 9.871094 C 16.710938 9.859375 16.691406 9.847656 16.671875 9.832031 C 16.652344 9.820312 16.636719 9.808594 16.617188 9.796875 C 16.539062 9.746094 16.460938 9.699219 16.378906 9.652344 C 16.335938 9.628906 16.292969 9.605469 16.253906 9.582031 C 16.234375 9.574219 16.210938 9.5625 16.191406 9.550781 C 16.171875 9.542969 16.152344 9.53125 16.132812 9.523438 C 15.972656 9.441406 15.800781 9.359375 15.621094 9.289062 C 15.535156 9.25 15.441406 9.214844 15.347656 9.183594 C 15.253906 9.152344 15.15625 9.121094 15.054688 9.09375 C 14.957031 9.070312 14.855469 9.046875 14.75 9.03125 C 14.648438 9.011719 14.542969 8.996094 14.433594 8.992188 C 14.222656 8.972656 14.007812 8.976562 13.796875 9.003906 C 13.691406 9.015625 13.585938 9.03125 13.480469 9.054688 L 13.464844 9.054688 C 13.457031 9.058594 13.453125 9.058594 13.445312 9.0625 L 13.402344 9.070312 C 13.375 9.078125 13.347656 9.082031 13.320312 9.089844 L 13.171875 9.136719 C 12.96875 9.195312 12.785156 9.273438 12.605469 9.355469 C 12.246094 9.519531 11.921875 9.710938 11.617188 9.902344 C 11.316406 10.09375 11.03125 10.285156 10.769531 10.46875 C 10.507812 10.648438 10.265625 10.816406 10.03125 10.957031 C 9.800781 11.097656 9.582031 11.210938 9.382812 11.300781 C 9.179688 11.386719 8.996094 11.445312 8.839844 11.484375 C 8.761719 11.503906 8.691406 11.519531 8.628906 11.527344 C 8.613281 11.53125 8.597656 11.53125 8.585938 11.535156 C 8.570312 11.539062 8.554688 11.539062 8.542969 11.542969 C 8.53125 11.542969 8.515625 11.542969 8.503906 11.546875 C 8.492188 11.546875 8.480469 11.550781 8.46875 11.550781 C 8.425781 11.554688 8.390625 11.558594 8.371094 11.558594 C 8.347656 11.5625 8.335938 11.5625 8.335938 11.5625 C 8.335938 11.5625 8.34375 11.566406 8.367188 11.574219 C 8.390625 11.578125 8.421875 11.589844 8.464844 11.601562 " fill-opacity="1" fill-rule="nonzero"/><g clip-path="url(#89727c3bd4)"><path fill="#000000" d="M 13.007812 8.304688 L 13.007812 8.3125 C 13.007812 8.316406 13.007812 8.3125 13.007812 8.320312 C 13.007812 8.324219 13.011719 8.328125 13.011719 8.335938 C 13.011719 8.339844 13.015625 8.347656 13.015625 8.351562 C 13.015625 8.359375 13.015625 8.363281 13.019531 8.371094 C 13.019531 8.378906 13.023438 8.382812 13.023438 8.390625 C 13.023438 8.398438 13.027344 8.402344 13.027344 8.410156 C 13.03125 8.421875 13.03125 8.433594 13.035156 8.441406 C 13.050781 8.488281 13.0625 8.527344 13.078125 8.566406 C 13.109375 8.640625 13.144531 8.699219 13.179688 8.75 C 13.1875 8.761719 13.195312 8.773438 13.203125 8.78125 C 13.210938 8.792969 13.21875 8.800781 13.226562 8.808594 C 13.234375 8.820312 13.238281 8.828125 13.246094 8.832031 C 13.253906 8.839844 13.261719 8.847656 13.265625 8.851562 C 13.277344 8.863281 13.285156 8.871094 13.292969 8.875 C 13.300781 8.878906 13.304688 8.882812 13.304688 8.882812 C 13.304688 8.882812 13.304688 8.878906 13.304688 8.867188 C 13.304688 8.859375 13.304688 8.851562 13.304688 8.835938 C 13.308594 8.820312 13.308594 8.804688 13.3125 8.78125 C 13.316406 8.761719 13.320312 8.738281 13.324219 8.714844 C 13.328125 8.6875 13.335938 8.660156 13.34375 8.632812 C 13.351562 8.601562 13.359375 8.570312 13.367188 8.539062 C 13.375 8.503906 13.386719 8.472656 13.398438 8.4375 C 13.402344 8.429688 13.402344 8.417969 13.40625 8.410156 L 13.410156 8.398438 L 13.417969 8.386719 L 13.421875 8.375 C 13.421875 8.371094 13.425781 8.363281 13.425781 8.359375 C 13.429688 8.355469 13.429688 8.351562 13.433594 8.34375 C 13.429688 8.351562 13.433594 8.347656 13.433594 8.347656 L 13.433594 8.34375 L 13.4375 8.335938 C 13.46875 8.277344 13.503906 8.226562 13.550781 8.183594 C 13.554688 8.179688 13.5625 8.175781 13.566406 8.167969 C 13.574219 8.164062 13.578125 8.160156 13.585938 8.15625 C 13.597656 8.144531 13.609375 8.136719 13.621094 8.128906 C 13.636719 8.117188 13.648438 8.109375 13.664062 8.101562 C 13.671875 8.097656 13.679688 8.09375 13.6875 8.089844 C 13.695312 8.085938 13.699219 8.082031 13.707031 8.078125 C 13.738281 8.066406 13.773438 8.050781 13.804688 8.039062 L 13.832031 8.03125 L 13.847656 8.027344 L 13.859375 8.023438 L 13.886719 8.015625 L 13.917969 8.007812 C 13.933594 8.003906 13.957031 8 13.976562 7.996094 C 13.996094 7.992188 14.015625 7.988281 14.035156 7.984375 C 14.074219 7.980469 14.117188 7.976562 14.160156 7.972656 L 14.191406 7.972656 C 14.199219 7.972656 14.210938 7.972656 14.222656 7.972656 C 14.242188 7.972656 14.261719 7.972656 14.285156 7.972656 C 14.324219 7.972656 14.367188 7.976562 14.40625 7.980469 C 14.441406 7.988281 14.480469 7.992188 14.515625 8 L 14.539062 8.007812 C 14.546875 8.007812 14.550781 8.007812 14.558594 8.011719 C 14.574219 8.015625 14.585938 8.019531 14.597656 8.023438 L 14.609375 8.027344 L 14.609375 8.03125 L 14.613281 8.03125 C 14.621094 8.035156 14.601562 8.023438 14.601562 8.023438 L 14.605469 8.027344 L 14.617188 8.03125 C 14.671875 8.050781 14.730469 8.082031 14.789062 8.125 C 14.84375 8.171875 14.894531 8.226562 14.941406 8.285156 C 14.953125 8.300781 14.964844 8.316406 14.976562 8.328125 C 14.988281 8.34375 14.996094 8.359375 15.007812 8.375 C 15.027344 8.40625 15.046875 8.433594 15.066406 8.464844 C 15.101562 8.523438 15.128906 8.578125 15.152344 8.625 C 15.160156 8.636719 15.164062 8.648438 15.167969 8.65625 C 15.175781 8.667969 15.179688 8.675781 15.183594 8.6875 C 15.195312 8.707031 15.203125 8.722656 15.207031 8.738281 C 15.222656 8.765625 15.230469 8.777344 15.230469 8.777344 C 15.230469 8.777344 15.238281 8.765625 15.25 8.738281 C 15.257812 8.722656 15.265625 8.707031 15.273438 8.6875 C 15.285156 8.667969 15.292969 8.640625 15.300781 8.613281 C 15.3125 8.589844 15.320312 8.558594 15.328125 8.523438 C 15.335938 8.492188 15.34375 8.453125 15.347656 8.414062 C 15.351562 8.394531 15.351562 8.371094 15.355469 8.351562 C 15.355469 8.328125 15.355469 8.304688 15.355469 8.285156 C 15.355469 8.261719 15.355469 8.238281 15.355469 8.210938 C 15.355469 8.1875 15.351562 8.160156 15.347656 8.136719 C 15.332031 8.03125 15.304688 7.917969 15.242188 7.800781 C 15.183594 7.683594 15.09375 7.5625 14.964844 7.46875 L 14.941406 7.449219 L 14.9375 7.445312 C 14.9375 7.445312 14.917969 7.4375 14.925781 7.441406 L 14.925781 7.4375 L 14.921875 7.4375 L 14.914062 7.433594 C 14.902344 7.425781 14.890625 7.417969 14.878906 7.410156 C 14.863281 7.398438 14.84375 7.386719 14.824219 7.378906 C 14.816406 7.371094 14.804688 7.367188 14.796875 7.363281 L 14.769531 7.351562 C 14.753906 7.34375 14.738281 7.335938 14.71875 7.328125 C 14.703125 7.320312 14.683594 7.3125 14.667969 7.308594 C 14.648438 7.300781 14.632812 7.296875 14.613281 7.289062 C 14.597656 7.285156 14.578125 7.277344 14.558594 7.273438 C 14.542969 7.269531 14.523438 7.265625 14.503906 7.257812 C 14.488281 7.253906 14.46875 7.253906 14.453125 7.25 C 14.414062 7.242188 14.378906 7.238281 14.339844 7.234375 C 14.269531 7.226562 14.195312 7.222656 14.121094 7.226562 C 14.046875 7.230469 13.972656 7.238281 13.902344 7.257812 C 13.828125 7.269531 13.757812 7.292969 13.6875 7.320312 C 13.617188 7.34375 13.550781 7.378906 13.484375 7.417969 C 13.421875 7.457031 13.359375 7.5 13.304688 7.550781 C 13.195312 7.652344 13.105469 7.78125 13.054688 7.914062 C 13.003906 8.046875 12.992188 8.179688 13.007812 8.292969 L 13.007812 8.304688 " fill-opacity="1" fill-rule="nonzero"/></g><g clip-path="url(#864473b700)"><path fill="#000000" d="M 18.050781 20.054688 L 18.050781 20.027344 C 18.046875 20.003906 18.046875 20.019531 18.046875 20.011719 L 18.046875 20.003906 L 18.039062 19.972656 L 18.03125 19.9375 C 18.027344 19.921875 18.023438 19.90625 18.019531 19.890625 C 18.015625 19.875 18.011719 19.859375 18.007812 19.847656 C 18 19.832031 17.996094 19.820312 17.992188 19.804688 C 17.980469 19.78125 17.972656 19.753906 17.960938 19.730469 C 17.945312 19.703125 17.9375 19.679688 17.921875 19.65625 C 17.910156 19.636719 17.894531 19.613281 17.882812 19.589844 C 17.824219 19.503906 17.761719 19.433594 17.695312 19.371094 C 17.664062 19.339844 17.632812 19.308594 17.601562 19.28125 C 17.566406 19.253906 17.535156 19.230469 17.503906 19.207031 C 17.441406 19.15625 17.378906 19.113281 17.316406 19.074219 C 17.195312 18.996094 17.085938 18.925781 16.984375 18.863281 C 16.882812 18.796875 16.792969 18.738281 16.714844 18.679688 C 16.640625 18.617188 16.578125 18.5625 16.527344 18.507812 C 16.492188 18.515625 16.457031 18.527344 16.421875 18.539062 C 16.425781 18.546875 16.429688 18.558594 16.4375 18.566406 C 16.472656 18.640625 16.527344 18.71875 16.589844 18.804688 C 16.65625 18.886719 16.734375 18.972656 16.820312 19.0625 C 16.90625 19.152344 17.003906 19.242188 17.101562 19.339844 C 17.148438 19.386719 17.199219 19.4375 17.246094 19.488281 C 17.269531 19.515625 17.289062 19.542969 17.3125 19.570312 C 17.335938 19.597656 17.355469 19.621094 17.375 19.652344 C 17.414062 19.707031 17.449219 19.765625 17.472656 19.820312 C 17.476562 19.835938 17.484375 19.851562 17.488281 19.867188 C 17.496094 19.878906 17.496094 19.894531 17.503906 19.910156 C 17.507812 19.921875 17.507812 19.9375 17.511719 19.953125 C 17.511719 19.960938 17.515625 19.96875 17.515625 19.972656 C 17.515625 19.980469 17.515625 19.984375 17.515625 19.992188 C 17.515625 19.996094 17.519531 20 17.519531 20.007812 C 17.519531 20.007812 17.519531 20.011719 17.519531 20.015625 L 17.519531 20.039062 L 17.523438 20.070312 L 17.523438 20.078125 C 17.523438 20.074219 17.523438 20.09375 17.519531 20.070312 L 17.519531 20.085938 C 17.519531 20.097656 17.519531 20.113281 17.515625 20.125 C 17.511719 20.140625 17.511719 20.15625 17.507812 20.167969 C 17.492188 20.226562 17.46875 20.28125 17.433594 20.335938 C 17.402344 20.390625 17.359375 20.445312 17.308594 20.496094 C 17.285156 20.519531 17.257812 20.542969 17.226562 20.566406 C 17.214844 20.574219 17.199219 20.585938 17.183594 20.597656 C 17.171875 20.605469 17.160156 20.613281 17.148438 20.621094 L 17.113281 20.640625 L 17.097656 20.648438 L 17.09375 20.652344 C 17.097656 20.648438 17.082031 20.65625 17.097656 20.648438 L 17.09375 20.652344 C 17.074219 20.660156 17.058594 20.667969 17.039062 20.675781 C 17.023438 20.683594 17.003906 20.691406 16.984375 20.699219 L 16.929688 20.722656 C 16.851562 20.75 16.769531 20.773438 16.683594 20.789062 C 16.59375 20.808594 16.503906 20.824219 16.40625 20.835938 C 16.382812 20.839844 16.355469 20.839844 16.332031 20.84375 C 16.308594 20.847656 16.28125 20.851562 16.257812 20.851562 C 16.230469 20.855469 16.207031 20.859375 16.179688 20.859375 C 16.152344 20.863281 16.128906 20.863281 16.101562 20.867188 C 15.6875 20.90625 15.253906 20.929688 14.816406 20.9375 C 14.378906 20.941406 13.933594 20.925781 13.492188 20.890625 C 13.4375 20.886719 13.382812 20.882812 13.328125 20.878906 L 13.160156 20.863281 C 13.050781 20.851562 12.941406 20.839844 12.832031 20.824219 C 12.722656 20.8125 12.609375 20.800781 12.503906 20.78125 C 12.449219 20.773438 12.394531 20.765625 12.339844 20.757812 C 12.285156 20.75 12.234375 20.742188 12.179688 20.730469 C 12.074219 20.71875 11.960938 20.695312 11.851562 20.675781 C 11.75 20.65625 11.652344 20.636719 11.5625 20.613281 C 11.476562 20.589844 11.394531 20.5625 11.335938 20.527344 L 11.3125 20.515625 C 11.304688 20.511719 11.296875 20.507812 11.289062 20.503906 C 11.277344 20.496094 11.265625 20.488281 11.25 20.480469 C 11.246094 20.476562 11.242188 20.472656 11.234375 20.46875 C 11.230469 20.464844 11.222656 20.460938 11.21875 20.457031 C 11.214844 20.453125 11.210938 20.445312 11.207031 20.441406 C 11.199219 20.4375 11.199219 20.4375 11.199219 20.4375 C 11.195312 20.4375 11.195312 20.433594 11.195312 20.433594 L 11.191406 20.433594 C 11.191406 20.433594 11.191406 20.429688 11.1875 20.429688 L 11.164062 20.398438 L 11.160156 20.390625 L 11.15625 20.386719 C 11.15625 20.382812 11.152344 20.378906 11.152344 20.375 C 11.148438 20.371094 11.148438 20.371094 11.144531 20.367188 L 11.140625 20.359375 C 11.140625 20.355469 11.136719 20.351562 11.136719 20.34375 C 11.132812 20.339844 11.128906 20.335938 11.128906 20.328125 C 11.125 20.324219 11.125 20.316406 11.121094 20.3125 C 11.109375 20.265625 11.101562 20.207031 11.109375 20.140625 C 11.117188 20.074219 11.136719 20.003906 11.164062 19.933594 C 11.167969 19.914062 11.175781 19.898438 11.183594 19.878906 L 11.195312 19.851562 L 11.210938 19.828125 C 11.21875 19.808594 11.226562 19.792969 11.238281 19.773438 L 11.261719 19.738281 L 11.265625 19.726562 L 11.28125 19.703125 C 11.285156 19.695312 11.289062 19.691406 11.296875 19.679688 L 11.320312 19.652344 L 11.332031 19.636719 L 11.339844 19.625 C 11.339844 19.621094 11.328125 19.632812 11.335938 19.628906 C 11.347656 19.609375 11.363281 19.59375 11.375 19.578125 C 11.390625 19.5625 11.402344 19.542969 11.417969 19.527344 C 11.472656 19.460938 11.535156 19.398438 11.597656 19.332031 C 11.726562 19.199219 11.859375 19.0625 11.976562 18.914062 C 12.007812 18.878906 12.035156 18.839844 12.0625 18.800781 L 12.082031 18.773438 L 12.105469 18.742188 L 12.125 18.707031 C 12.132812 18.699219 12.136719 18.691406 12.140625 18.683594 C 11.972656 18.640625 11.808594 18.589844 11.640625 18.53125 C 11.628906 18.542969 11.617188 18.554688 11.601562 18.570312 C 11.542969 18.621094 11.480469 18.671875 11.414062 18.726562 C 11.34375 18.78125 11.273438 18.835938 11.203125 18.894531 C 11.128906 18.953125 11.050781 19.015625 10.972656 19.085938 C 10.953125 19.105469 10.933594 19.121094 10.914062 19.140625 C 10.894531 19.160156 10.875 19.179688 10.855469 19.195312 C 10.835938 19.21875 10.816406 19.238281 10.796875 19.257812 C 10.789062 19.265625 10.777344 19.277344 10.769531 19.289062 L 10.722656 19.347656 L 10.707031 19.363281 L 10.679688 19.398438 C 10.660156 19.425781 10.644531 19.449219 10.628906 19.476562 L 10.601562 19.511719 L 10.578125 19.554688 C 10.5625 19.578125 10.546875 19.605469 10.53125 19.636719 C 10.472656 19.746094 10.421875 19.871094 10.394531 20.011719 C 10.363281 20.148438 10.351562 20.304688 10.382812 20.464844 L 10.394531 20.523438 C 10.398438 20.542969 10.402344 20.566406 10.410156 20.585938 L 10.429688 20.644531 L 10.441406 20.671875 C 10.445312 20.683594 10.449219 20.691406 10.453125 20.703125 L 10.480469 20.761719 L 10.496094 20.789062 L 10.515625 20.820312 L 10.535156 20.855469 C 10.535156 20.859375 10.535156 20.859375 10.539062 20.859375 L 10.542969 20.867188 L 10.578125 20.914062 C 10.609375 20.957031 10.632812 20.984375 10.664062 21.015625 C 10.675781 21.03125 10.691406 21.042969 10.707031 21.058594 C 10.722656 21.070312 10.734375 21.085938 10.75 21.097656 C 10.78125 21.125 10.8125 21.148438 10.84375 21.171875 C 10.859375 21.179688 10.875 21.191406 10.890625 21.203125 L 10.941406 21.230469 C 10.957031 21.242188 10.972656 21.25 10.988281 21.257812 L 11.035156 21.285156 C 11.066406 21.300781 11.101562 21.316406 11.132812 21.328125 L 11.179688 21.351562 L 11.226562 21.367188 C 11.257812 21.382812 11.289062 21.390625 11.320312 21.402344 C 11.445312 21.441406 11.5625 21.472656 11.679688 21.5 C 11.792969 21.527344 11.898438 21.550781 12.015625 21.574219 C 12.074219 21.585938 12.132812 21.597656 12.191406 21.609375 C 12.25 21.621094 12.308594 21.628906 12.367188 21.640625 C 12.480469 21.660156 12.597656 21.679688 12.714844 21.695312 C 12.773438 21.703125 12.832031 21.710938 12.890625 21.71875 C 12.953125 21.726562 13.011719 21.734375 13.070312 21.738281 L 13.246094 21.757812 C 13.304688 21.761719 13.363281 21.769531 13.425781 21.773438 C 13.898438 21.808594 14.375 21.816406 14.84375 21.792969 C 15.308594 21.773438 15.769531 21.722656 16.207031 21.644531 C 16.234375 21.640625 16.261719 21.636719 16.289062 21.632812 L 16.332031 21.625 L 16.371094 21.617188 C 16.398438 21.613281 16.425781 21.605469 16.453125 21.601562 C 16.480469 21.59375 16.507812 21.589844 16.535156 21.582031 C 16.648438 21.558594 16.761719 21.53125 16.875 21.496094 C 16.988281 21.460938 17.101562 21.417969 17.210938 21.363281 L 17.25 21.34375 L 17.289062 21.320312 C 17.316406 21.304688 17.34375 21.289062 17.371094 21.273438 C 17.394531 21.257812 17.421875 21.242188 17.449219 21.226562 L 17.457031 21.21875 C 17.472656 21.207031 17.464844 21.214844 17.46875 21.210938 L 17.472656 21.207031 L 17.488281 21.195312 L 17.515625 21.171875 C 17.542969 21.152344 17.570312 21.128906 17.597656 21.109375 C 17.621094 21.085938 17.640625 21.066406 17.664062 21.046875 C 17.707031 21 17.75 20.957031 17.785156 20.90625 C 17.859375 20.808594 17.925781 20.707031 17.96875 20.59375 C 18.015625 20.480469 18.046875 20.359375 18.054688 20.238281 C 18.058594 20.207031 18.058594 20.175781 18.058594 20.148438 C 18.058594 20.117188 18.054688 20.085938 18.050781 20.054688 " fill-opacity="1" fill-rule="nonzero"/></g><g fill="#000000" fill-opacity="1"><g transform="translate(6.832146, 27.177425)"><g><path d="M 0.34375 -0.078125 L 0.34375 -2.625 C 0.34375 -2.65625 0.347656 -2.675781 0.359375 -2.6875 C 0.367188 -2.707031 0.390625 -2.71875 0.421875 -2.71875 L 0.734375 -2.71875 C 0.765625 -2.71875 0.785156 -2.707031 0.796875 -2.6875 C 0.804688 -2.675781 0.8125 -2.65625 0.8125 -2.625 L 0.8125 -0.078125 C 0.8125 -0.046875 0.804688 -0.0234375 0.796875 -0.015625 C 0.785156 -0.00390625 0.765625 0 0.734375 0 L 0.421875 0 C 0.390625 0 0.367188 -0.00390625 0.359375 -0.015625 C 0.347656 -0.0234375 0.34375 -0.046875 0.34375 -0.078125 Z M 2.015625 -2.71875 L 2.40625 -2.71875 C 2.4375 -2.71875 2.457031 -2.707031 2.46875 -2.6875 C 2.476562 -2.675781 2.46875 -2.65625 2.4375 -2.625 L 1 -1.09375 L 0.875 -1.234375 L 0.875 -1.5625 L 1.890625 -2.625 C 1.921875 -2.65625 1.941406 -2.675781 1.953125 -2.6875 C 1.960938 -2.707031 1.984375 -2.71875 2.015625 -2.71875 Z M 2.453125 0 L 2.0625 0 C 2.039062 0 2.019531 -0.00390625 2 -0.015625 C 1.988281 -0.0234375 1.96875 -0.046875 1.9375 -0.078125 L 1.046875 -1.046875 L 1.34375 -1.359375 L 2.484375 -0.078125 C 2.515625 -0.046875 2.523438 -0.0234375 2.515625 -0.015625 C 2.503906 -0.00390625 2.484375 0 2.453125 0 Z M 2.453125 0 "/></g></g></g><g fill="#000000" fill-opacity="1"><g transform="translate(9.417973, 27.177425)"><g><path d="M 1.53125 -0.359375 L 1.53125 0.046875 C 1.34375 0.046875 1.164062 0.0078125 1 -0.0625 C 0.832031 -0.144531 0.6875 -0.25 0.5625 -0.375 C 0.445312 -0.507812 0.351562 -0.660156 0.28125 -0.828125 C 0.207031 -0.992188 0.171875 -1.171875 0.171875 -1.359375 C 0.171875 -1.546875 0.207031 -1.722656 0.28125 -1.890625 C 0.351562 -2.054688 0.453125 -2.203125 0.578125 -2.328125 C 0.703125 -2.460938 0.84375 -2.566406 1 -2.640625 C 1.164062 -2.710938 1.34375 -2.753906 1.53125 -2.765625 L 1.53125 -2.359375 C 1.351562 -2.347656 1.195312 -2.289062 1.0625 -2.1875 C 0.9375 -2.09375 0.835938 -1.96875 0.765625 -1.8125 C 0.691406 -1.664062 0.65625 -1.515625 0.65625 -1.359375 C 0.65625 -1.191406 0.691406 -1.035156 0.765625 -0.890625 C 0.835938 -0.742188 0.9375 -0.617188 1.0625 -0.515625 C 1.195312 -0.421875 1.351562 -0.367188 1.53125 -0.359375 Z M 1.609375 -2.359375 L 1.609375 -2.765625 C 1.796875 -2.753906 1.96875 -2.710938 2.125 -2.640625 C 2.289062 -2.566406 2.4375 -2.460938 2.5625 -2.328125 C 2.6875 -2.203125 2.78125 -2.054688 2.84375 -1.890625 C 2.914062 -1.722656 2.953125 -1.546875 2.953125 -1.359375 C 2.953125 -1.171875 2.914062 -0.992188 2.84375 -0.828125 C 2.78125 -0.660156 2.6875 -0.507812 2.5625 -0.375 C 2.445312 -0.25 2.304688 -0.144531 2.140625 -0.0625 C 1.972656 0.0078125 1.796875 0.046875 1.609375 0.046875 L 1.609375 -0.359375 C 1.785156 -0.367188 1.9375 -0.421875 2.0625 -0.515625 C 2.195312 -0.617188 2.300781 -0.742188 2.375 -0.890625 C 2.445312 -1.035156 2.484375 -1.191406 2.484375 -1.359375 C 2.484375 -1.515625 2.445312 -1.664062 2.375 -1.8125 C 2.300781 -1.96875 2.195312 -2.09375 2.0625 -2.1875 C 1.9375 -2.289062 1.785156 -2.347656 1.609375 -2.359375 Z M 1.609375 -2.359375 "/></g></g></g><g fill="#000000" fill-opacity="1"><g transform="translate(12.553481, 27.177425)"><g><path d="M 1.703125 -0.109375 L 1.703125 -1.875 C 1.722656 -1.90625 1.742188 -1.925781 1.765625 -1.9375 C 1.796875 -1.957031 1.828125 -1.96875 1.859375 -1.96875 L 2.0625 -1.96875 C 2.09375 -1.96875 2.113281 -1.960938 2.125 -1.953125 C 2.144531 -1.941406 2.15625 -1.921875 2.15625 -1.890625 L 2.15625 -0.15625 C 2.15625 0.226562 2.070312 0.507812 1.90625 0.6875 C 1.738281 0.863281 1.503906 0.953125 1.203125 0.953125 C 1.054688 0.953125 0.925781 0.941406 0.8125 0.921875 C 0.707031 0.898438 0.617188 0.878906 0.546875 0.859375 C 0.484375 0.835938 0.441406 0.820312 0.421875 0.8125 C 0.398438 0.800781 0.382812 0.789062 0.375 0.78125 C 0.363281 0.769531 0.363281 0.75 0.375 0.71875 L 0.4375 0.484375 C 0.445312 0.441406 0.460938 0.421875 0.484375 0.421875 C 0.484375 0.421875 0.492188 0.425781 0.515625 0.4375 C 0.578125 0.457031 0.660156 0.484375 0.765625 0.515625 C 0.878906 0.546875 1.003906 0.5625 1.140625 0.5625 C 1.328125 0.5625 1.46875 0.503906 1.5625 0.390625 C 1.65625 0.285156 1.703125 0.117188 1.703125 -0.109375 Z M 1.640625 -1.796875 L 1.640625 -1.3125 C 1.578125 -1.425781 1.5 -1.503906 1.40625 -1.546875 C 1.320312 -1.597656 1.238281 -1.625 1.15625 -1.625 C 1.050781 -1.625 0.957031 -1.59375 0.875 -1.53125 C 0.789062 -1.476562 0.722656 -1.40625 0.671875 -1.3125 C 0.628906 -1.21875 0.609375 -1.109375 0.609375 -0.984375 C 0.609375 -0.867188 0.628906 -0.765625 0.671875 -0.671875 C 0.722656 -0.578125 0.789062 -0.5 0.875 -0.4375 C 0.957031 -0.382812 1.050781 -0.359375 1.15625 -0.359375 C 1.25 -0.359375 1.335938 -0.382812 1.421875 -0.4375 C 1.515625 -0.488281 1.585938 -0.566406 1.640625 -0.671875 L 1.640625 -0.21875 C 1.578125 -0.144531 1.492188 -0.0820312 1.390625 -0.03125 C 1.296875 0.0195312 1.1875 0.046875 1.0625 0.046875 C 0.882812 0.046875 0.726562 0 0.59375 -0.09375 C 0.457031 -0.1875 0.351562 -0.3125 0.28125 -0.46875 C 0.207031 -0.625 0.171875 -0.796875 0.171875 -0.984375 C 0.171875 -1.171875 0.207031 -1.34375 0.28125 -1.5 C 0.351562 -1.65625 0.457031 -1.78125 0.59375 -1.875 C 0.726562 -1.96875 0.882812 -2.015625 1.0625 -2.015625 C 1.175781 -2.015625 1.28125 -1.992188 1.375 -1.953125 C 1.476562 -1.910156 1.566406 -1.859375 1.640625 -1.796875 Z M 1.640625 -1.796875 "/></g></g></g><g fill="#000000" fill-opacity="1"><g transform="translate(15.019309, 27.177425)"><g><path d="M 1.875 -0.484375 L 1.984375 -0.34375 C 2.003906 -0.3125 2.015625 -0.289062 2.015625 -0.28125 C 2.015625 -0.269531 2.003906 -0.253906 1.984375 -0.234375 C 1.898438 -0.140625 1.785156 -0.0664062 1.640625 -0.015625 C 1.492188 0.0234375 1.347656 0.046875 1.203125 0.046875 C 1.015625 0.046875 0.835938 0 0.671875 -0.09375 C 0.515625 -0.1875 0.390625 -0.3125 0.296875 -0.46875 C 0.210938 -0.625 0.171875 -0.796875 0.171875 -0.984375 C 0.171875 -1.160156 0.210938 -1.328125 0.296875 -1.484375 C 0.378906 -1.640625 0.492188 -1.765625 0.640625 -1.859375 C 0.796875 -1.953125 0.960938 -2.003906 1.140625 -2.015625 L 1.140625 -1.65625 C 0.984375 -1.644531 0.859375 -1.578125 0.765625 -1.453125 C 0.671875 -1.328125 0.625 -1.175781 0.625 -1 L 0.625 -0.96875 C 0.625 -0.851562 0.648438 -0.742188 0.703125 -0.640625 C 0.753906 -0.546875 0.820312 -0.472656 0.90625 -0.421875 C 1 -0.367188 1.101562 -0.34375 1.21875 -0.34375 C 1.289062 -0.34375 1.367188 -0.351562 1.453125 -0.375 C 1.546875 -0.394531 1.644531 -0.429688 1.75 -0.484375 C 1.757812 -0.492188 1.769531 -0.5 1.78125 -0.5 C 1.789062 -0.507812 1.800781 -0.515625 1.8125 -0.515625 C 1.832031 -0.515625 1.851562 -0.503906 1.875 -0.484375 Z M 2.15625 -0.921875 C 2.15625 -0.890625 2.148438 -0.867188 2.140625 -0.859375 C 2.128906 -0.847656 2.109375 -0.84375 2.078125 -0.84375 L 0.703125 -0.84375 C 0.679688 -0.9375 0.679688 -1.03125 0.703125 -1.125 L 1.703125 -1.125 C 1.691406 -1.207031 1.664062 -1.285156 1.625 -1.359375 C 1.59375 -1.441406 1.539062 -1.507812 1.46875 -1.5625 C 1.40625 -1.613281 1.316406 -1.644531 1.203125 -1.65625 L 1.203125 -2.015625 C 1.410156 -2.003906 1.582031 -1.945312 1.71875 -1.84375 C 1.863281 -1.75 1.972656 -1.617188 2.046875 -1.453125 C 2.117188 -1.285156 2.15625 -1.109375 2.15625 -0.921875 Z M 2.15625 -0.921875 "/></g></g></g><g fill="#000000" fill-opacity="1"><g transform="translate(17.310941, 27.177425)"><g><path d="M 2.078125 -1.125 L 2.078125 -0.078125 C 2.078125 -0.046875 2.070312 -0.0234375 2.0625 -0.015625 C 2.050781 -0.00390625 2.03125 0 2 0 L 1.71875 0 C 1.6875 0 1.664062 -0.00390625 1.65625 -0.015625 C 1.644531 -0.0234375 1.640625 -0.046875 1.640625 -0.078125 L 1.640625 -1.015625 C 1.640625 -1.222656 1.601562 -1.375 1.53125 -1.46875 C 1.457031 -1.570312 1.351562 -1.625 1.21875 -1.625 C 1.144531 -1.625 1.070312 -1.601562 1 -1.5625 C 0.9375 -1.519531 0.882812 -1.460938 0.84375 -1.390625 L 0.84375 -1.8125 C 0.976562 -1.945312 1.140625 -2.015625 1.328125 -2.015625 C 1.460938 -2.015625 1.585938 -1.984375 1.703125 -1.921875 C 1.816406 -1.867188 1.90625 -1.773438 1.96875 -1.640625 C 2.039062 -1.515625 2.078125 -1.34375 2.078125 -1.125 Z M 0.34375 -0.078125 L 0.34375 -1.890625 C 0.34375 -1.921875 0.347656 -1.941406 0.359375 -1.953125 C 0.367188 -1.960938 0.390625 -1.96875 0.421875 -1.96875 L 0.5625 -1.96875 C 0.632812 -1.96875 0.679688 -1.953125 0.703125 -1.921875 L 0.78125 -1.8125 L 0.78125 -0.078125 C 0.78125 -0.046875 0.773438 -0.0234375 0.765625 -0.015625 C 0.753906 -0.00390625 0.734375 0 0.703125 0 L 0.421875 0 C 0.390625 0 0.367188 -0.00390625 0.359375 -0.015625 C 0.347656 -0.0234375 0.34375 -0.046875 0.34375 -0.078125 Z M 0.34375 -0.078125 "/></g></g></g><g fill="#000000" fill-opacity="1"><g transform="translate(19.641281, 27.177425)"><g><path d="M 0.765625 0 L 0.484375 0 C 0.453125 0 0.429688 -0.00390625 0.421875 -0.015625 C 0.410156 -0.0234375 0.40625 -0.046875 0.40625 -0.078125 L 0.40625 -1.890625 C 0.40625 -1.921875 0.410156 -1.941406 0.421875 -1.953125 C 0.429688 -1.960938 0.453125 -1.96875 0.484375 -1.96875 L 0.765625 -1.96875 C 0.796875 -1.96875 0.816406 -1.960938 0.828125 -1.953125 C 0.835938 -1.941406 0.84375 -1.921875 0.84375 -1.890625 L 0.84375 -0.078125 C 0.84375 -0.046875 0.835938 -0.0234375 0.828125 -0.015625 C 0.816406 -0.00390625 0.796875 0 0.765625 0 Z M 0.609375 -2.859375 C 0.691406 -2.859375 0.757812 -2.832031 0.8125 -2.78125 C 0.863281 -2.726562 0.890625 -2.664062 0.890625 -2.59375 C 0.890625 -2.507812 0.863281 -2.441406 0.8125 -2.390625 C 0.757812 -2.347656 0.691406 -2.328125 0.609375 -2.328125 C 0.535156 -2.328125 0.472656 -2.347656 0.421875 -2.390625 C 0.367188 -2.441406 0.34375 -2.507812 0.34375 -2.59375 C 0.34375 -2.664062 0.367188 -2.726562 0.421875 -2.78125 C 0.472656 -2.832031 0.535156 -2.859375 0.609375 -2.859375 Z M 0.609375 -2.859375 "/></g></g></g><g fill="#000000" fill-opacity="1"><g transform="translate(20.872258, 27.177425)"><g><path d="M 1.875 -0.484375 L 1.984375 -0.34375 C 2.003906 -0.3125 2.015625 -0.289062 2.015625 -0.28125 C 2.015625 -0.269531 2.003906 -0.253906 1.984375 -0.234375 C 1.898438 -0.140625 1.785156 -0.0664062 1.640625 -0.015625 C 1.492188 0.0234375 1.347656 0.046875 1.203125 0.046875 C 1.015625 0.046875 0.835938 0 0.671875 -0.09375 C 0.515625 -0.1875 0.390625 -0.3125 0.296875 -0.46875 C 0.210938 -0.625 0.171875 -0.796875 0.171875 -0.984375 C 0.171875 -1.160156 0.210938 -1.328125 0.296875 -1.484375 C 0.378906 -1.640625 0.492188 -1.765625 0.640625 -1.859375 C 0.796875 -1.953125 0.960938 -2.003906 1.140625 -2.015625 L 1.140625 -1.65625 C 0.984375 -1.644531 0.859375 -1.578125 0.765625 -1.453125 C 0.671875 -1.328125 0.625 -1.175781 0.625 -1 L 0.625 -0.96875 C 0.625 -0.851562 0.648438 -0.742188 0.703125 -0.640625 C 0.753906 -0.546875 0.820312 -0.472656 0.90625 -0.421875 C 1 -0.367188 1.101562 -0.34375 1.21875 -0.34375 C 1.289062 -0.34375 1.367188 -0.351562 1.453125 -0.375 C 1.546875 -0.394531 1.644531 -0.429688 1.75 -0.484375 C 1.757812 -0.492188 1.769531 -0.5 1.78125 -0.5 C 1.789062 -0.507812 1.800781 -0.515625 1.8125 -0.515625 C 1.832031 -0.515625 1.851562 -0.503906 1.875 -0.484375 Z M 2.15625 -0.921875 C 2.15625 -0.890625 2.148438 -0.867188 2.140625 -0.859375 C 2.128906 -0.847656 2.109375 -0.84375 2.078125 -0.84375 L 0.703125 -0.84375 C 0.679688 -0.9375 0.679688 -1.03125 0.703125 -1.125 L 1.703125 -1.125 C 1.691406 -1.207031 1.664062 -1.285156 1.625 -1.359375 C 1.59375 -1.441406 1.539062 -1.507812 1.46875 -1.5625 C 1.40625 -1.613281 1.316406 -1.644531 1.203125 -1.65625 L 1.203125 -2.015625 C 1.410156 -2.003906 1.582031 -1.945312 1.71875 -1.84375 C 1.863281 -1.75 1.972656 -1.617188 2.046875 -1.453125 C 2.117188 -1.285156 2.15625 -1.109375 2.15625 -0.921875 Z M 2.15625 -0.921875 "/></g></g></g></svg>