<svg xmlns="http://www.w3.org/2000/svg" xmlns:xlink="http://www.w3.org/1999/xlink" width="40" zoomAndPan="magnify" viewBox="0 0 30 30.000001" height="40" preserveAspectRatio="xMidYMid meet" version="1.0"><defs><g/><clipPath id="540c7e1c18"><path d="M 0.484375 0 L 29.515625 0 L 29.515625 29.03125 L 0.484375 29.03125 Z M 0.484375 0 " clip-rule="nonzero"/></clipPath><clipPath id="97e27e6aec"><path d="M 0.484375 3 L 29.515625 3 L 29.515625 29.03125 L 0.484375 29.03125 Z M 0.484375 3 " clip-rule="nonzero"/></clipPath><clipPath id="f559255744"><path d="M 0.484375 14.625 L 29.515625 14.625 L 29.515625 18.625 L 0.484375 18.625 Z M 0.484375 14.625 " clip-rule="nonzero"/></clipPath><clipPath id="a5d6922db7"><path d="M -0.0976562 14.625 L 30.097656 14.625 C 30.902344 14.625 31.550781 15.277344 31.550781 16.078125 L 31.550781 17.175781 C 31.550781 17.976562 30.902344 18.625 30.097656 18.625 L -0.0976562 18.625 C -0.902344 18.625 -1.550781 17.976562 -1.550781 17.175781 L -1.550781 16.078125 C -1.550781 15.277344 -0.902344 14.625 -0.0976562 14.625 Z M -0.0976562 14.625 " clip-rule="nonzero"/></clipPath></defs><g clip-path="url(#540c7e1c18)"><path stroke-linecap="butt" transform="matrix(0.725806, 0, 0, 0.725806, 3.974773, -5.999619)" fill="none" stroke-linejoin="miter" d="M 23.150209 11.506073 C 22.434411 12.006594 21.804723 12.399476 21.255765 12.684719 C 20.706806 12.969962 20.168612 13.190622 19.646563 13.346698 C 19.033022 14.315448 18.371043 15.230378 17.649862 16.09149 C 16.928681 16.957983 16.175209 17.797566 15.394827 18.604858 C 14.614445 19.417531 13.817918 20.208677 13.016008 20.978295 C 12.208716 21.747913 11.428334 22.512149 10.664098 23.276385 C 11.164619 23.992184 11.735105 24.788712 12.380938 25.671351 C 13.026772 26.55399 13.721042 27.442011 14.463751 28.340795 C 15.211841 29.234198 15.997605 30.106073 16.826424 30.961802 C 17.655244 31.812149 18.500209 32.565622 19.366702 33.222219 C 20.233195 33.878816 21.115834 34.406247 22.014619 34.804511 C 22.913404 35.208156 23.806806 35.407288 24.689445 35.407288 C 25.001598 35.407288 25.324515 35.369615 25.674341 35.299649 C 26.018786 35.224302 26.379376 35.100518 26.745348 34.922913 C 26.02955 35.697913 25.399862 36.300691 24.861668 36.736629 C 24.318091 37.172566 23.860626 37.495483 23.489272 37.694615 C 23.058716 37.947566 22.692744 38.092879 22.380591 38.141316 C 21.998473 38.17899 21.535626 38.087497 20.986668 37.872219 C 20.437709 37.662323 19.840313 37.360934 19.19448 36.973434 C 18.554029 36.585934 17.886668 36.128469 17.192397 35.601038 C 16.503508 35.07899 15.825383 34.524649 15.168786 33.938018 C 14.442223 33.259893 13.667223 32.474129 12.843786 31.575344 C 12.144133 30.81649 11.347605 29.885413 10.459584 28.792879 C 9.566181 27.705726 8.656633 26.462497 7.730938 25.063191 L 9.264792 23.131073 C 9.625383 22.835066 10.050556 22.463712 10.534931 22.01701 C 11.024688 21.564927 11.541355 21.080552 12.074167 20.54774 C 12.612362 20.014927 13.155938 19.455205 13.715661 18.857809 C 14.270001 18.260413 14.792049 17.663017 15.276424 17.06024 C 15.766181 16.457462 16.202119 15.865448 16.584237 15.278816 C 16.966355 14.692184 17.262362 14.143226 17.47764 13.631941 C 17.133195 13.669615 16.64882 13.718052 16.029897 13.777253 C 15.410973 13.836455 14.705938 13.922566 13.920174 14.046351 C 14.560626 13.51892 15.141876 13.120656 15.653161 12.846177 C 16.169827 12.571698 16.611147 12.367184 16.977119 12.238017 C 17.407674 12.092705 17.795174 12.011976 18.139619 11.985066 C 18.559411 12.001212 19.016876 11.990448 19.517397 11.96892 C 20.017918 11.947392 20.507675 11.915101 20.975904 11.872045 C 21.449515 11.82899 21.874688 11.77517 22.26757 11.710587 C 22.65507 11.646003 22.945695 11.576038 23.150209 11.506073 Z M 10.804029 35.692531 C 10.163577 36.123087 9.630765 36.489059 9.216355 36.801212 C 8.796563 37.113365 8.419827 37.366316 8.075383 37.560066 C 7.73632 37.759198 7.408022 37.904511 7.095869 38.001386 C 6.778334 38.092879 6.40698 38.141316 5.976424 38.141316 C 5.400556 38.141316 4.916181 38.119788 4.507154 38.071351 C 4.103508 38.022913 3.699862 38.001386 3.290834 38.001386 C 3.091702 38.001386 2.881806 38.006768 2.677292 38.028295 C 2.467397 38.044441 2.235973 38.082115 1.988404 38.141316 C 2.322084 37.856073 2.623473 37.549302 2.897952 37.21024 C 3.172431 36.876559 3.409237 36.467531 3.602987 35.977774 C 3.802119 35.488018 3.952813 34.901386 4.060452 34.217879 C 4.168091 33.52899 4.22191 32.705552 4.22191 31.736802 L 4.22191 13.669615 C 3.850556 13.701906 3.403855 13.750344 2.881806 13.809545 C 2.354376 13.874128 1.75698 13.949476 1.089619 14.046351 C 1.735452 13.51892 2.316702 13.120656 2.833369 12.846177 C 3.355417 12.571698 3.796737 12.367184 4.168091 12.238017 C 4.598647 12.092705 4.980765 12.011976 5.314445 11.985066 C 5.728855 12.001212 6.191702 11.990448 6.697605 11.96892 C 7.20889 11.947392 7.693265 11.915101 8.166876 11.872045 C 8.640487 11.82899 9.071042 11.77517 9.463924 11.710587 C 9.856806 11.646003 10.147431 11.576038 10.341181 11.506073 C 9.781459 11.872045 9.275556 12.184198 8.828855 12.442531 C 8.382154 12.700865 7.95698 12.91076 7.547952 13.077601 C 7.488751 15.23576 7.440313 17.167878 7.397258 18.873955 C 7.354202 20.580031 7.321911 22.092358 7.289619 23.410934 C 7.262709 24.72951 7.235799 25.865101 7.219654 26.828469 C 7.203508 27.786455 7.187362 28.609892 7.176598 29.288017 C 7.138924 30.875691 7.128161 31.957462 7.138924 32.544094 C 7.128161 32.985413 7.068959 33.421351 6.96132 33.851906 C 6.864445 34.228643 6.719133 34.632288 6.530765 35.057462 C 6.337015 35.482636 6.062535 35.864754 5.707327 36.209198 C 5.933369 36.236108 6.154029 36.246872 6.369306 36.246872 C 6.584584 36.246872 6.79448 36.246872 6.993612 36.246872 C 7.601772 36.246872 8.145348 36.219962 8.613577 36.166143 C 9.087188 36.112323 9.48007 36.04774 9.802987 35.977774 C 10.185105 35.897045 10.518786 35.80017 10.804029 35.692531 Z M 10.804029 35.692531 " stroke="#ffffff" stroke-width="2.748173" stroke-opacity="1" stroke-miterlimit="4"/></g><g fill="#8c52ff" fill-opacity="1"><g transform="translate(3.974773, 21.581026)"><g><path d="M 16.796875 -19.234375 C 16.285156 -18.867188 15.828125 -18.582031 15.421875 -18.375 C 15.023438 -18.164062 14.632812 -18.003906 14.25 -17.890625 C 13.8125 -17.191406 13.332031 -16.523438 12.8125 -15.890625 C 12.289062 -15.265625 11.742188 -14.65625 11.171875 -14.0625 C 10.609375 -13.476562 10.03125 -12.90625 9.4375 -12.34375 C 8.851562 -11.789062 8.285156 -11.238281 7.734375 -10.6875 C 8.097656 -10.164062 8.515625 -9.582031 8.984375 -8.9375 C 9.453125 -8.300781 9.957031 -7.65625 10.5 -7 C 11.039062 -6.351562 11.609375 -5.722656 12.203125 -5.109375 C 12.804688 -4.492188 13.421875 -3.945312 14.046875 -3.46875 C 14.679688 -2.988281 15.320312 -2.601562 15.96875 -2.3125 C 16.625 -2.03125 17.273438 -1.890625 17.921875 -1.890625 C 18.140625 -1.890625 18.375 -1.910156 18.625 -1.953125 C 18.882812 -2.003906 19.144531 -2.097656 19.40625 -2.234375 C 18.894531 -1.671875 18.441406 -1.226562 18.046875 -0.90625 C 17.648438 -0.59375 17.316406 -0.363281 17.046875 -0.21875 C 16.734375 -0.0390625 16.46875 0.0664062 16.25 0.109375 C 15.96875 0.128906 15.628906 0.0625 15.234375 -0.09375 C 14.835938 -0.25 14.40625 -0.46875 13.9375 -0.75 C 13.46875 -1.03125 12.976562 -1.359375 12.46875 -1.734375 C 11.96875 -2.117188 11.484375 -2.523438 11.015625 -2.953125 C 10.484375 -3.441406 9.921875 -4.007812 9.328125 -4.65625 C 8.816406 -5.21875 8.238281 -5.894531 7.59375 -6.6875 C 6.945312 -7.476562 6.285156 -8.378906 5.609375 -9.390625 L 6.71875 -10.796875 C 6.976562 -11.003906 7.285156 -11.269531 7.640625 -11.59375 C 8.003906 -11.925781 8.378906 -12.285156 8.765625 -12.671875 C 9.148438 -13.054688 9.546875 -13.460938 9.953125 -13.890625 C 10.359375 -14.328125 10.738281 -14.765625 11.09375 -15.203125 C 11.445312 -15.640625 11.757812 -16.066406 12.03125 -16.484375 C 12.3125 -16.910156 12.53125 -17.3125 12.6875 -17.6875 C 12.4375 -17.65625 12.082031 -17.617188 11.625 -17.578125 C 11.175781 -17.535156 10.671875 -17.472656 10.109375 -17.390625 C 10.566406 -17.765625 10.984375 -18.050781 11.359375 -18.25 C 11.734375 -18.457031 12.054688 -18.609375 12.328125 -18.703125 C 12.640625 -18.804688 12.921875 -18.863281 13.171875 -18.875 C 13.472656 -18.875 13.804688 -18.878906 14.171875 -18.890625 C 14.535156 -18.910156 14.882812 -18.9375 15.21875 -18.96875 C 15.5625 -19 15.875 -19.035156 16.15625 -19.078125 C 16.4375 -19.128906 16.648438 -19.179688 16.796875 -19.234375 Z M 7.84375 -1.671875 C 7.375 -1.359375 6.988281 -1.085938 6.6875 -0.859375 C 6.382812 -0.640625 6.109375 -0.457031 5.859375 -0.3125 C 5.617188 -0.175781 5.378906 -0.0703125 5.140625 0 C 4.910156 0.0703125 4.644531 0.109375 4.34375 0.109375 C 3.925781 0.109375 3.566406 0.0859375 3.265625 0.046875 C 2.972656 0.015625 2.679688 0 2.390625 0 C 2.242188 0 2.09375 0.00390625 1.9375 0.015625 C 1.789062 0.0234375 1.625 0.0546875 1.4375 0.109375 C 1.6875 -0.0976562 1.910156 -0.320312 2.109375 -0.5625 C 2.304688 -0.8125 2.472656 -1.113281 2.609375 -1.46875 C 2.753906 -1.820312 2.863281 -2.25 2.9375 -2.75 C 3.019531 -3.25 3.0625 -3.847656 3.0625 -4.546875 L 3.0625 -17.65625 C 2.789062 -17.632812 2.460938 -17.597656 2.078125 -17.546875 C 1.703125 -17.503906 1.273438 -17.453125 0.796875 -17.390625 C 1.265625 -17.765625 1.6875 -18.050781 2.0625 -18.25 C 2.4375 -18.457031 2.757812 -18.609375 3.03125 -18.703125 C 3.34375 -18.804688 3.617188 -18.863281 3.859375 -18.875 C 4.160156 -18.875 4.492188 -18.878906 4.859375 -18.890625 C 5.234375 -18.910156 5.585938 -18.9375 5.921875 -18.96875 C 6.265625 -19 6.578125 -19.035156 6.859375 -19.078125 C 7.148438 -19.128906 7.363281 -19.179688 7.5 -19.234375 C 7.09375 -18.960938 6.726562 -18.734375 6.40625 -18.546875 C 6.082031 -18.359375 5.773438 -18.207031 5.484375 -18.09375 C 5.441406 -16.519531 5.40625 -15.113281 5.375 -13.875 C 5.34375 -12.644531 5.316406 -11.550781 5.296875 -10.59375 C 5.273438 -9.632812 5.253906 -8.804688 5.234375 -8.109375 C 5.222656 -7.410156 5.210938 -6.816406 5.203125 -6.328125 C 5.179688 -5.171875 5.175781 -4.378906 5.1875 -3.953125 C 5.175781 -3.640625 5.128906 -3.328125 5.046875 -3.015625 C 4.984375 -2.734375 4.878906 -2.4375 4.734375 -2.125 C 4.597656 -1.820312 4.398438 -1.546875 4.140625 -1.296875 C 4.304688 -1.273438 4.46875 -1.265625 4.625 -1.265625 C 4.78125 -1.265625 4.929688 -1.265625 5.078125 -1.265625 C 5.515625 -1.265625 5.90625 -1.285156 6.25 -1.328125 C 6.59375 -1.367188 6.878906 -1.414062 7.109375 -1.46875 C 7.390625 -1.53125 7.632812 -1.597656 7.84375 -1.671875 Z M 7.84375 -1.671875 "/></g></g></g><g clip-path="url(#97e27e6aec)"><path stroke-linecap="butt" transform="matrix(0.725806, 0, 0, 0.725806, 8.522339, 4.67085)" fill="none" stroke-linejoin="miter" d="M 21.534673 19.866169 C 21.534673 21.082488 21.33016 22.207315 20.931896 23.240648 C 20.52825 24.273981 19.995437 25.215822 19.33884 26.066169 C 18.676861 26.916516 17.923389 27.669988 17.078423 28.326585 C 16.233458 28.977801 15.366965 29.532141 14.484326 29.97346 C 13.596305 30.420162 12.729812 30.753842 11.879465 30.985266 C 11.029118 31.21669 10.2595 31.32971 9.581375 31.32971 C 9.010889 31.32971 8.402729 31.243599 7.762277 31.065995 C 7.121826 30.888391 6.486757 30.624676 5.862451 30.274849 C 5.232764 29.925023 4.635368 29.489085 4.0595 28.972419 C 3.483632 28.45037 2.983111 27.847592 2.547173 27.164085 C 2.111236 26.480578 1.766791 25.71096 1.508458 24.865995 C 1.250125 24.02103 1.120958 23.095335 1.120958 22.088912 C 1.120958 20.75419 1.303944 19.527106 1.68068 18.418426 C 2.052034 17.309745 2.547173 16.314085 3.160715 15.426064 C 3.779639 14.543426 4.484673 13.768426 5.270437 13.111828 C 6.061583 12.449849 6.868875 11.900891 7.697694 11.470335 C 8.521132 11.034398 9.339187 10.706099 10.141097 10.490821 C 10.948389 10.275544 11.669569 10.167905 12.310021 10.167905 C 12.988146 10.167905 13.687798 10.243252 14.403597 10.383183 C 15.119396 10.528495 15.819048 10.759919 16.502555 11.072071 C 17.186062 11.389606 17.831896 11.798634 18.440055 12.299155 C 19.048215 12.805058 19.581028 13.413217 20.038493 14.129016 C 20.50134 14.844814 20.86193 15.679016 21.131028 16.63162 C 21.400125 17.584224 21.534673 18.660613 21.534673 19.866169 Z M 18.92443 20.743426 C 18.92443 19.688565 18.795264 18.73596 18.53693 17.880231 C 18.278597 17.024502 17.928771 16.265648 17.492833 15.598287 C 17.056896 14.936308 16.556375 14.360439 15.985889 13.876064 C 15.420784 13.397071 14.828771 12.998808 14.209847 12.681273 C 13.590923 12.363738 12.966618 12.132314 12.33693 11.987002 C 11.707243 11.836308 11.109847 11.76096 10.544743 11.76096 C 9.645958 11.76096 8.774083 11.933183 7.9345 12.272245 C 7.089534 12.611308 6.341444 13.14412 5.690229 13.865301 C 5.033632 14.586481 4.511583 15.517558 4.118701 16.653148 C 3.725819 17.79412 3.526687 19.155752 3.526687 20.743426 C 3.526687 21.803669 3.682764 22.756273 3.989534 23.60662 C 4.296305 24.451585 4.694569 25.194294 5.19509 25.834745 C 5.690229 26.475197 6.249951 27.024155 6.879639 27.487002 C 7.503944 27.944467 8.139014 28.315822 8.784847 28.606447 C 9.43068 28.89169 10.060368 29.101585 10.668527 29.236134 C 11.271305 29.370683 11.804118 29.435266 12.250819 29.435266 C 12.702903 29.435266 13.176514 29.370683 13.677034 29.236134 C 14.182937 29.101585 14.678076 28.886308 15.178597 28.595683 C 15.673736 28.305058 16.147347 27.928322 16.59943 27.470856 C 17.046132 27.013391 17.444396 26.464433 17.78884 25.818599 C 18.133284 25.178148 18.407764 24.440822 18.612278 23.595856 C 18.816791 22.756273 18.92443 21.803669 18.92443 20.743426 Z M 18.92443 20.743426 " stroke="#ffffff" stroke-width="2.203763" stroke-opacity="1" stroke-miterlimit="4"/></g><g fill="#8c52ff" fill-opacity="1"><g transform="translate(8.522339, 27.17085)"><g><path d="M 15.625 -8.078125 C 15.625 -7.203125 15.476562 -6.390625 15.1875 -5.640625 C 14.894531 -4.890625 14.507812 -4.203125 14.03125 -3.578125 C 13.550781 -2.960938 13.003906 -2.414062 12.390625 -1.9375 C 11.773438 -1.46875 11.144531 -1.070312 10.5 -0.75 C 9.863281 -0.425781 9.238281 -0.179688 8.625 -0.015625 C 8.007812 0.148438 7.453125 0.234375 6.953125 0.234375 C 6.535156 0.234375 6.09375 0.171875 5.625 0.046875 C 5.164062 -0.078125 4.707031 -0.265625 4.25 -0.515625 C 3.800781 -0.773438 3.367188 -1.09375 2.953125 -1.46875 C 2.535156 -1.851562 2.164062 -2.289062 1.84375 -2.78125 C 1.53125 -3.28125 1.28125 -3.835938 1.09375 -4.453125 C 0.90625 -5.066406 0.8125 -5.738281 0.8125 -6.46875 C 0.8125 -7.4375 0.945312 -8.320312 1.21875 -9.125 C 1.488281 -9.9375 1.847656 -10.660156 2.296875 -11.296875 C 2.742188 -11.941406 3.253906 -12.503906 3.828125 -12.984375 C 4.398438 -13.460938 4.984375 -13.859375 5.578125 -14.171875 C 6.179688 -14.492188 6.773438 -14.734375 7.359375 -14.890625 C 7.941406 -15.046875 8.46875 -15.125 8.9375 -15.125 C 9.425781 -15.125 9.929688 -15.070312 10.453125 -14.96875 C 10.972656 -14.863281 11.476562 -14.695312 11.96875 -14.46875 C 12.46875 -14.238281 12.9375 -13.941406 13.375 -13.578125 C 13.820312 -13.210938 14.210938 -12.769531 14.546875 -12.25 C 14.878906 -11.726562 15.140625 -11.117188 15.328125 -10.421875 C 15.523438 -9.734375 15.625 -8.953125 15.625 -8.078125 Z M 13.734375 -7.453125 C 13.734375 -8.210938 13.640625 -8.898438 13.453125 -9.515625 C 13.265625 -10.140625 13.007812 -10.691406 12.6875 -11.171875 C 12.375 -11.660156 12.007812 -12.078125 11.59375 -12.421875 C 11.1875 -12.773438 10.757812 -13.066406 10.3125 -13.296875 C 9.863281 -13.523438 9.410156 -13.691406 8.953125 -13.796875 C 8.492188 -13.910156 8.0625 -13.96875 7.65625 -13.96875 C 7 -13.96875 6.363281 -13.84375 5.75 -13.59375 C 5.144531 -13.34375 4.601562 -12.957031 4.125 -12.4375 C 3.65625 -11.914062 3.273438 -11.238281 2.984375 -10.40625 C 2.703125 -9.582031 2.5625 -8.597656 2.5625 -7.453125 C 2.5625 -6.679688 2.671875 -5.988281 2.890625 -5.375 C 3.117188 -4.757812 3.410156 -4.21875 3.765625 -3.75 C 4.128906 -3.28125 4.535156 -2.878906 4.984375 -2.546875 C 5.441406 -2.210938 5.90625 -1.941406 6.375 -1.734375 C 6.84375 -1.523438 7.296875 -1.375 7.734375 -1.28125 C 8.179688 -1.1875 8.566406 -1.140625 8.890625 -1.140625 C 9.222656 -1.140625 9.570312 -1.1875 9.9375 -1.28125 C 10.300781 -1.375 10.660156 -1.523438 11.015625 -1.734375 C 11.378906 -1.953125 11.722656 -2.226562 12.046875 -2.5625 C 12.367188 -2.894531 12.65625 -3.289062 12.90625 -3.75 C 13.15625 -4.21875 13.351562 -4.757812 13.5 -5.375 C 13.65625 -5.988281 13.734375 -6.679688 13.734375 -7.453125 Z M 13.734375 -7.453125 "/></g></g></g><g clip-path="url(#f559255744)"><g clip-path="url(#a5d6922db7)"><path fill="#ffffff" d="M -1.550781 14.625 L 31.546875 14.625 L 31.546875 18.625 L -1.550781 18.625 Z M -1.550781 14.625 " fill-opacity="1" fill-rule="nonzero"/></g></g><g fill="#000000" fill-opacity="1"><g transform="translate(6.566975, 17.791591)"><g><path d="M 2.265625 -2.59375 C 2.191406 -2.539062 2.128906 -2.5 2.078125 -2.46875 C 2.023438 -2.445312 1.972656 -2.425781 1.921875 -2.40625 C 1.859375 -2.3125 1.789062 -2.222656 1.71875 -2.140625 C 1.65625 -2.054688 1.582031 -1.972656 1.5 -1.890625 C 1.425781 -1.816406 1.347656 -1.738281 1.265625 -1.65625 C 1.191406 -1.582031 1.117188 -1.507812 1.046875 -1.4375 C 1.085938 -1.363281 1.140625 -1.285156 1.203125 -1.203125 C 1.265625 -1.117188 1.332031 -1.03125 1.40625 -0.9375 C 1.476562 -0.851562 1.554688 -0.769531 1.640625 -0.6875 C 1.722656 -0.601562 1.804688 -0.53125 1.890625 -0.46875 C 1.972656 -0.40625 2.054688 -0.351562 2.140625 -0.3125 C 2.234375 -0.269531 2.320312 -0.25 2.40625 -0.25 C 2.4375 -0.25 2.46875 -0.253906 2.5 -0.265625 C 2.539062 -0.273438 2.578125 -0.285156 2.609375 -0.296875 C 2.535156 -0.222656 2.472656 -0.164062 2.421875 -0.125 C 2.367188 -0.0820312 2.328125 -0.0507812 2.296875 -0.03125 C 2.253906 -0.0078125 2.21875 0.00390625 2.1875 0.015625 C 2.144531 0.015625 2.097656 0.00390625 2.046875 -0.015625 C 1.992188 -0.0351562 1.9375 -0.0625 1.875 -0.09375 C 1.8125 -0.132812 1.742188 -0.179688 1.671875 -0.234375 C 1.609375 -0.285156 1.546875 -0.335938 1.484375 -0.390625 C 1.410156 -0.460938 1.332031 -0.539062 1.25 -0.625 C 1.1875 -0.695312 1.109375 -0.785156 1.015625 -0.890625 C 0.929688 -1.003906 0.84375 -1.128906 0.75 -1.265625 L 0.90625 -1.453125 C 0.9375 -1.484375 0.972656 -1.519531 1.015625 -1.5625 C 1.066406 -1.601562 1.117188 -1.648438 1.171875 -1.703125 C 1.234375 -1.753906 1.289062 -1.804688 1.34375 -1.859375 C 1.394531 -1.921875 1.441406 -1.984375 1.484375 -2.046875 C 1.535156 -2.109375 1.578125 -2.164062 1.609375 -2.21875 C 1.648438 -2.269531 1.679688 -2.320312 1.703125 -2.375 C 1.671875 -2.375 1.625 -2.367188 1.5625 -2.359375 C 1.5 -2.359375 1.429688 -2.351562 1.359375 -2.34375 C 1.421875 -2.394531 1.476562 -2.429688 1.53125 -2.453125 C 1.582031 -2.484375 1.625 -2.503906 1.65625 -2.515625 C 1.695312 -2.523438 1.734375 -2.535156 1.765625 -2.546875 C 1.804688 -2.535156 1.851562 -2.53125 1.90625 -2.53125 C 1.957031 -2.539062 2.003906 -2.546875 2.046875 -2.546875 C 2.097656 -2.554688 2.140625 -2.5625 2.171875 -2.5625 C 2.210938 -2.570312 2.242188 -2.582031 2.265625 -2.59375 Z M 1.0625 -0.21875 C 0.988281 -0.175781 0.929688 -0.140625 0.890625 -0.109375 C 0.859375 -0.0859375 0.820312 -0.0664062 0.78125 -0.046875 C 0.75 -0.0234375 0.71875 -0.0078125 0.6875 0 C 0.65625 0.0078125 0.617188 0.015625 0.578125 0.015625 C 0.523438 0.015625 0.476562 0.0078125 0.4375 0 C 0.394531 0 0.359375 0 0.328125 0 C 0.304688 0 0.285156 0 0.265625 0 C 0.242188 0 0.21875 0.00390625 0.1875 0.015625 C 0.226562 -0.015625 0.257812 -0.046875 0.28125 -0.078125 C 0.3125 -0.109375 0.332031 -0.144531 0.34375 -0.1875 C 0.363281 -0.238281 0.378906 -0.296875 0.390625 -0.359375 C 0.398438 -0.429688 0.40625 -0.515625 0.40625 -0.609375 L 0.40625 -2.375 C 0.375 -2.375 0.332031 -2.367188 0.28125 -2.359375 C 0.226562 -2.359375 0.171875 -2.351562 0.109375 -2.34375 C 0.171875 -2.394531 0.226562 -2.429688 0.28125 -2.453125 C 0.332031 -2.484375 0.375 -2.503906 0.40625 -2.515625 C 0.445312 -2.523438 0.484375 -2.535156 0.515625 -2.546875 C 0.554688 -2.535156 0.601562 -2.53125 0.65625 -2.53125 C 0.707031 -2.539062 0.753906 -2.546875 0.796875 -2.546875 C 0.835938 -2.554688 0.878906 -2.5625 0.921875 -2.5625 C 0.960938 -2.570312 0.992188 -2.582031 1.015625 -2.59375 C 0.953125 -2.550781 0.898438 -2.515625 0.859375 -2.484375 C 0.816406 -2.460938 0.773438 -2.445312 0.734375 -2.4375 C 0.734375 -2.226562 0.726562 -2.039062 0.71875 -1.875 C 0.71875 -1.707031 0.710938 -1.554688 0.703125 -1.421875 C 0.703125 -1.296875 0.703125 -1.1875 0.703125 -1.09375 C 0.703125 -1 0.703125 -0.914062 0.703125 -0.84375 C 0.703125 -0.695312 0.703125 -0.59375 0.703125 -0.53125 C 0.703125 -0.488281 0.691406 -0.445312 0.671875 -0.40625 C 0.671875 -0.363281 0.660156 -0.320312 0.640625 -0.28125 C 0.617188 -0.238281 0.59375 -0.203125 0.5625 -0.171875 C 0.582031 -0.171875 0.601562 -0.171875 0.625 -0.171875 C 0.644531 -0.171875 0.664062 -0.171875 0.6875 -0.171875 C 0.738281 -0.171875 0.785156 -0.171875 0.828125 -0.171875 C 0.878906 -0.179688 0.921875 -0.191406 0.953125 -0.203125 C 0.992188 -0.203125 1.03125 -0.207031 1.0625 -0.21875 Z M 1.0625 -0.21875 "/></g></g></g><g fill="#000000" fill-opacity="1"><g transform="translate(9.280628, 17.791591)"><g><path d="M 2.625 -1.359375 C 2.625 -1.210938 2.597656 -1.070312 2.546875 -0.9375 C 2.492188 -0.8125 2.425781 -0.695312 2.34375 -0.59375 C 2.269531 -0.5 2.179688 -0.410156 2.078125 -0.328125 C 1.972656 -0.242188 1.867188 -0.175781 1.765625 -0.125 C 1.660156 -0.0703125 1.554688 -0.03125 1.453125 0 C 1.347656 0.03125 1.253906 0.046875 1.171875 0.046875 C 1.097656 0.046875 1.019531 0.03125 0.9375 0 C 0.863281 -0.0195312 0.785156 -0.0507812 0.703125 -0.09375 C 0.628906 -0.132812 0.554688 -0.1875 0.484375 -0.25 C 0.421875 -0.3125 0.363281 -0.382812 0.3125 -0.46875 C 0.257812 -0.550781 0.21875 -0.644531 0.1875 -0.75 C 0.15625 -0.851562 0.140625 -0.960938 0.140625 -1.078125 C 0.140625 -1.242188 0.160156 -1.394531 0.203125 -1.53125 C 0.242188 -1.664062 0.300781 -1.785156 0.375 -1.890625 C 0.457031 -2.003906 0.546875 -2.097656 0.640625 -2.171875 C 0.734375 -2.253906 0.832031 -2.320312 0.9375 -2.375 C 1.039062 -2.425781 1.140625 -2.460938 1.234375 -2.484375 C 1.328125 -2.515625 1.414062 -2.53125 1.5 -2.53125 C 1.582031 -2.53125 1.664062 -2.519531 1.75 -2.5 C 1.84375 -2.488281 1.929688 -2.460938 2.015625 -2.421875 C 2.097656 -2.390625 2.175781 -2.34375 2.25 -2.28125 C 2.320312 -2.21875 2.382812 -2.140625 2.4375 -2.046875 C 2.5 -1.960938 2.546875 -1.863281 2.578125 -1.75 C 2.609375 -1.632812 2.625 -1.503906 2.625 -1.359375 Z M 2.296875 -1.25 C 2.296875 -1.375 2.28125 -1.488281 2.25 -1.59375 C 2.21875 -1.695312 2.175781 -1.789062 2.125 -1.875 C 2.070312 -1.957031 2.007812 -2.023438 1.9375 -2.078125 C 1.875 -2.140625 1.804688 -2.1875 1.734375 -2.21875 C 1.660156 -2.257812 1.582031 -2.289062 1.5 -2.3125 C 1.425781 -2.332031 1.351562 -2.34375 1.28125 -2.34375 C 1.175781 -2.34375 1.070312 -2.320312 0.96875 -2.28125 C 0.863281 -2.238281 0.769531 -2.171875 0.6875 -2.078125 C 0.613281 -1.992188 0.550781 -1.882812 0.5 -1.75 C 0.457031 -1.613281 0.4375 -1.445312 0.4375 -1.25 C 0.4375 -1.125 0.453125 -1.007812 0.484375 -0.90625 C 0.523438 -0.800781 0.570312 -0.707031 0.625 -0.625 C 0.6875 -0.550781 0.753906 -0.484375 0.828125 -0.421875 C 0.910156 -0.367188 0.988281 -0.320312 1.0625 -0.28125 C 1.144531 -0.25 1.222656 -0.222656 1.296875 -0.203125 C 1.367188 -0.191406 1.429688 -0.1875 1.484375 -0.1875 C 1.546875 -0.1875 1.601562 -0.191406 1.65625 -0.203125 C 1.71875 -0.222656 1.78125 -0.25 1.84375 -0.28125 C 1.90625 -0.320312 1.960938 -0.367188 2.015625 -0.421875 C 2.078125 -0.484375 2.128906 -0.550781 2.171875 -0.625 C 2.210938 -0.707031 2.242188 -0.800781 2.265625 -0.90625 C 2.285156 -1.007812 2.296875 -1.125 2.296875 -1.25 Z M 2.296875 -1.25 "/></g></g></g><g fill="#000000" fill-opacity="1"><g transform="translate(12.30151, 17.791591)"><g><path d="M 2.296875 -2.40625 C 2.273438 -2.375 2.253906 -2.347656 2.234375 -2.328125 C 2.203125 -2.296875 2.164062 -2.269531 2.125 -2.25 C 2.09375 -2.226562 2.050781 -2.207031 2 -2.1875 C 2.019531 -2.207031 2.019531 -2.226562 2 -2.25 C 1.988281 -2.269531 1.957031 -2.289062 1.90625 -2.3125 C 1.863281 -2.332031 1.800781 -2.347656 1.71875 -2.359375 C 1.644531 -2.378906 1.554688 -2.390625 1.453125 -2.390625 C 1.378906 -2.390625 1.304688 -2.378906 1.234375 -2.359375 C 1.160156 -2.347656 1.085938 -2.328125 1.015625 -2.296875 C 0.941406 -2.265625 0.867188 -2.222656 0.796875 -2.171875 C 0.734375 -2.117188 0.675781 -2.050781 0.625 -1.96875 C 0.570312 -1.882812 0.53125 -1.785156 0.5 -1.671875 C 0.46875 -1.566406 0.453125 -1.441406 0.453125 -1.296875 C 0.453125 -1.148438 0.46875 -1.019531 0.5 -0.90625 C 0.539062 -0.789062 0.585938 -0.691406 0.640625 -0.609375 C 0.703125 -0.535156 0.769531 -0.472656 0.84375 -0.421875 C 0.914062 -0.367188 0.992188 -0.328125 1.078125 -0.296875 C 1.160156 -0.265625 1.238281 -0.238281 1.3125 -0.21875 C 1.382812 -0.207031 1.453125 -0.203125 1.515625 -0.203125 C 1.566406 -0.203125 1.617188 -0.207031 1.671875 -0.21875 C 1.710938 -0.21875 1.757812 -0.222656 1.8125 -0.234375 C 1.875 -0.242188 1.9375 -0.253906 2 -0.265625 C 2.019531 -0.285156 2.035156 -0.304688 2.046875 -0.328125 C 2.054688 -0.347656 2.0625 -0.363281 2.0625 -0.375 C 2.070312 -0.394531 2.078125 -0.414062 2.078125 -0.4375 C 2.085938 -0.550781 2.09375 -0.664062 2.09375 -0.78125 C 2.09375 -0.90625 2.09375 -1.023438 2.09375 -1.140625 C 2.0625 -1.148438 2.023438 -1.15625 1.984375 -1.15625 C 1.941406 -1.15625 1.90625 -1.15625 1.875 -1.15625 C 1.84375 -1.15625 1.816406 -1.15625 1.796875 -1.15625 C 1.773438 -1.15625 1.753906 -1.148438 1.734375 -1.140625 C 1.796875 -1.179688 1.847656 -1.210938 1.890625 -1.234375 C 1.941406 -1.253906 1.984375 -1.273438 2.015625 -1.296875 C 2.046875 -1.304688 2.078125 -1.3125 2.109375 -1.3125 C 2.128906 -1.320312 2.15625 -1.328125 2.1875 -1.328125 C 2.226562 -1.328125 2.269531 -1.328125 2.3125 -1.328125 C 2.351562 -1.328125 2.394531 -1.328125 2.4375 -1.328125 C 2.476562 -1.335938 2.507812 -1.347656 2.53125 -1.359375 L 2.421875 -1.265625 C 2.410156 -1.140625 2.40625 -1.035156 2.40625 -0.953125 C 2.40625 -0.878906 2.40625 -0.816406 2.40625 -0.765625 C 2.394531 -0.710938 2.390625 -0.664062 2.390625 -0.625 C 2.390625 -0.59375 2.382812 -0.554688 2.375 -0.515625 C 2.363281 -0.484375 2.34375 -0.453125 2.3125 -0.421875 C 2.28125 -0.390625 2.242188 -0.351562 2.203125 -0.3125 C 2.160156 -0.28125 2.109375 -0.25 2.046875 -0.21875 C 1.953125 -0.15625 1.863281 -0.109375 1.78125 -0.078125 C 1.707031 -0.046875 1.640625 -0.0195312 1.578125 0 C 1.515625 0.0195312 1.453125 0.03125 1.390625 0.03125 C 1.222656 0.03125 1.0625 0.00390625 0.90625 -0.046875 C 0.75 -0.0976562 0.613281 -0.171875 0.5 -0.265625 C 0.382812 -0.359375 0.289062 -0.472656 0.21875 -0.609375 C 0.15625 -0.753906 0.125 -0.914062 0.125 -1.09375 C 0.125 -1.207031 0.132812 -1.3125 0.15625 -1.40625 C 0.1875 -1.5 0.21875 -1.582031 0.25 -1.65625 C 0.28125 -1.738281 0.316406 -1.8125 0.359375 -1.875 C 0.398438 -1.9375 0.441406 -1.992188 0.484375 -2.046875 C 0.535156 -2.097656 0.582031 -2.140625 0.625 -2.171875 C 0.664062 -2.203125 0.703125 -2.226562 0.734375 -2.25 C 0.765625 -2.257812 0.800781 -2.273438 0.84375 -2.296875 C 0.894531 -2.316406 0.945312 -2.335938 1 -2.359375 C 1.0625 -2.390625 1.125 -2.414062 1.1875 -2.4375 C 1.25 -2.457031 1.3125 -2.472656 1.375 -2.484375 C 1.445312 -2.503906 1.515625 -2.519531 1.578125 -2.53125 C 1.640625 -2.539062 1.695312 -2.546875 1.75 -2.546875 C 1.875 -2.546875 1.972656 -2.539062 2.046875 -2.53125 C 2.128906 -2.519531 2.1875 -2.503906 2.21875 -2.484375 C 2.257812 -2.472656 2.285156 -2.457031 2.296875 -2.4375 C 2.304688 -2.425781 2.304688 -2.414062 2.296875 -2.40625 Z M 2.296875 -2.40625 "/></g></g></g><g fill="#000000" fill-opacity="1"><g transform="translate(15.165286, 17.791591)"><g><path d="M 1.53125 -1.375 C 1.519531 -1.363281 1.503906 -1.351562 1.484375 -1.34375 C 1.460938 -1.332031 1.4375 -1.316406 1.40625 -1.296875 C 1.375 -1.273438 1.332031 -1.242188 1.28125 -1.203125 C 1.28125 -1.210938 1.273438 -1.222656 1.265625 -1.234375 C 1.265625 -1.242188 1.253906 -1.253906 1.234375 -1.265625 C 1.210938 -1.265625 1.1875 -1.265625 1.15625 -1.265625 C 1.113281 -1.265625 1.050781 -1.257812 0.96875 -1.25 C 0.894531 -1.25 0.8125 -1.242188 0.71875 -1.234375 C 0.71875 -1.046875 0.710938 -0.894531 0.703125 -0.78125 C 0.703125 -0.664062 0.703125 -0.578125 0.703125 -0.515625 C 0.703125 -0.429688 0.703125 -0.375 0.703125 -0.34375 C 0.703125 -0.320312 0.691406 -0.296875 0.671875 -0.265625 C 0.671875 -0.253906 0.660156 -0.234375 0.640625 -0.203125 C 0.617188 -0.179688 0.585938 -0.164062 0.546875 -0.15625 L 1.34375 -0.15625 C 1.375 -0.15625 1.410156 -0.15625 1.453125 -0.15625 C 1.484375 -0.15625 1.515625 -0.160156 1.546875 -0.171875 C 1.585938 -0.179688 1.628906 -0.195312 1.671875 -0.21875 C 1.609375 -0.15625 1.546875 -0.109375 1.484375 -0.078125 C 1.429688 -0.0546875 1.382812 -0.0351562 1.34375 -0.015625 C 1.28125 -0.00390625 1.222656 0 1.171875 0 C 1.054688 0 0.945312 0 0.84375 0 C 0.75 0 0.660156 0 0.578125 0 C 0.492188 0.0078125 0.421875 0.015625 0.359375 0.015625 C 0.304688 0.0234375 0.269531 0.0351562 0.25 0.046875 C 0.28125 0.00390625 0.304688 -0.03125 0.328125 -0.0625 C 0.347656 -0.09375 0.363281 -0.128906 0.375 -0.171875 C 0.382812 -0.222656 0.390625 -0.273438 0.390625 -0.328125 C 0.398438 -0.378906 0.40625 -0.441406 0.40625 -0.515625 L 0.40625 -1.234375 C 0.363281 -1.234375 0.328125 -1.234375 0.296875 -1.234375 C 0.265625 -1.234375 0.234375 -1.238281 0.203125 -1.25 L 0.40625 -1.34375 C 0.40625 -1.40625 0.398438 -1.46875 0.390625 -1.53125 C 0.390625 -1.601562 0.390625 -1.675781 0.390625 -1.75 C 0.390625 -1.832031 0.390625 -1.921875 0.390625 -2.015625 C 0.390625 -2.109375 0.390625 -2.207031 0.390625 -2.3125 C 0.335938 -2.3125 0.285156 -2.3125 0.234375 -2.3125 C 0.191406 -2.320312 0.15625 -2.328125 0.125 -2.328125 L 0.4375 -2.5 C 0.664062 -2.5 0.859375 -2.5 1.015625 -2.5 C 1.171875 -2.5 1.300781 -2.503906 1.40625 -2.515625 C 1.519531 -2.515625 1.617188 -2.519531 1.703125 -2.53125 C 1.734375 -2.53125 1.753906 -2.523438 1.765625 -2.515625 C 1.785156 -2.503906 1.789062 -2.492188 1.78125 -2.484375 C 1.78125 -2.484375 1.773438 -2.476562 1.765625 -2.46875 C 1.753906 -2.457031 1.742188 -2.453125 1.734375 -2.453125 C 1.722656 -2.453125 1.707031 -2.441406 1.6875 -2.421875 C 1.664062 -2.410156 1.632812 -2.390625 1.59375 -2.359375 C 1.550781 -2.335938 1.492188 -2.300781 1.421875 -2.25 C 1.453125 -2.28125 1.460938 -2.300781 1.453125 -2.3125 C 1.453125 -2.320312 1.445312 -2.332031 1.4375 -2.34375 C 1.414062 -2.34375 1.394531 -2.34375 1.375 -2.34375 C 1.351562 -2.34375 1.316406 -2.34375 1.265625 -2.34375 C 1.222656 -2.34375 1.171875 -2.335938 1.109375 -2.328125 C 1.054688 -2.328125 0.992188 -2.328125 0.921875 -2.328125 C 0.859375 -2.328125 0.789062 -2.328125 0.71875 -2.328125 C 0.71875 -2.140625 0.71875 -1.96875 0.71875 -1.8125 C 0.71875 -1.664062 0.71875 -1.53125 0.71875 -1.40625 C 0.832031 -1.414062 0.9375 -1.421875 1.03125 -1.421875 C 1.125 -1.421875 1.207031 -1.421875 1.28125 -1.421875 C 1.363281 -1.429688 1.429688 -1.4375 1.484375 -1.4375 C 1.523438 -1.4375 1.550781 -1.429688 1.5625 -1.421875 C 1.582031 -1.421875 1.585938 -1.414062 1.578125 -1.40625 C 1.578125 -1.40625 1.570312 -1.398438 1.5625 -1.390625 C 1.550781 -1.378906 1.539062 -1.375 1.53125 -1.375 Z M 1.53125 -1.375 "/></g></g></g><g fill="#000000" fill-opacity="1"><g transform="translate(17.26099, 17.791591)"><g><path d="M 0.5 -0.328125 C 0.5 -0.316406 0.492188 -0.300781 0.484375 -0.28125 C 0.484375 -0.269531 0.472656 -0.253906 0.453125 -0.234375 C 0.441406 -0.210938 0.425781 -0.191406 0.40625 -0.171875 C 0.4375 -0.160156 0.46875 -0.15625 0.5 -0.15625 C 0.539062 -0.15625 0.578125 -0.15625 0.609375 -0.15625 C 0.660156 -0.15625 0.703125 -0.15625 0.734375 -0.15625 C 0.773438 -0.164062 0.800781 -0.171875 0.8125 -0.171875 C 0.757812 -0.140625 0.710938 -0.113281 0.671875 -0.09375 C 0.640625 -0.0703125 0.601562 -0.0507812 0.5625 -0.03125 C 0.53125 -0.0195312 0.488281 -0.0078125 0.4375 0 C 0.382812 0.0078125 0.320312 0.0195312 0.25 0.03125 C 0.25 0.0195312 0.253906 0.0078125 0.265625 0 L 0.234375 0.03125 C 0.210938 0.03125 0.191406 0.03125 0.171875 0.03125 C 0.160156 0.03125 0.144531 0.03125 0.125 0.03125 L 0.296875 -0.09375 C 0.296875 -0.125 0.296875 -0.15625 0.296875 -0.1875 C 0.304688 -0.21875 0.3125 -0.253906 0.3125 -0.296875 C 0.320312 -0.335938 0.328125 -0.375 0.328125 -0.40625 C 0.328125 -0.445312 0.328125 -0.488281 0.328125 -0.53125 C 0.335938 -0.613281 0.34375 -0.703125 0.34375 -0.796875 C 0.351562 -1.054688 0.359375 -1.3125 0.359375 -1.5625 C 0.367188 -1.820312 0.375 -2.082031 0.375 -2.34375 L 0.5625 -2.65625 C 0.570312 -2.539062 0.59375 -2.429688 0.625 -2.328125 C 0.664062 -2.234375 0.710938 -2.132812 0.765625 -2.03125 C 0.828125 -1.9375 0.894531 -1.84375 0.96875 -1.75 C 1.039062 -1.664062 1.117188 -1.578125 1.203125 -1.484375 C 1.285156 -1.398438 1.367188 -1.316406 1.453125 -1.234375 C 1.546875 -1.148438 1.632812 -1.066406 1.71875 -0.984375 C 1.800781 -0.910156 1.878906 -0.832031 1.953125 -0.75 C 2.023438 -0.664062 2.085938 -0.585938 2.140625 -0.515625 C 2.160156 -0.765625 2.171875 -1.007812 2.171875 -1.25 C 2.179688 -1.488281 2.1875 -1.726562 2.1875 -1.96875 C 2.1875 -2.070312 2.179688 -2.15625 2.171875 -2.21875 C 2.171875 -2.28125 2.164062 -2.332031 2.15625 -2.375 C 2.144531 -2.375 2.128906 -2.375 2.109375 -2.375 C 2.097656 -2.375 2.082031 -2.375 2.0625 -2.375 C 2.019531 -2.375 1.976562 -2.367188 1.9375 -2.359375 C 1.90625 -2.359375 1.875 -2.351562 1.84375 -2.34375 C 1.894531 -2.375 1.9375 -2.398438 1.96875 -2.421875 C 2.007812 -2.453125 2.050781 -2.472656 2.09375 -2.484375 C 2.132812 -2.503906 2.175781 -2.519531 2.21875 -2.53125 C 2.257812 -2.539062 2.304688 -2.546875 2.359375 -2.546875 C 2.390625 -2.546875 2.421875 -2.546875 2.453125 -2.546875 C 2.484375 -2.546875 2.519531 -2.546875 2.5625 -2.546875 C 2.53125 -2.523438 2.5 -2.503906 2.46875 -2.484375 C 2.445312 -2.472656 2.421875 -2.457031 2.390625 -2.4375 C 2.390625 -2.082031 2.378906 -1.734375 2.359375 -1.390625 C 2.335938 -1.046875 2.320312 -0.703125 2.3125 -0.359375 C 2.238281 -0.242188 2.1875 -0.148438 2.15625 -0.078125 C 2.125 -0.00390625 2.109375 0.0351562 2.109375 0.046875 L 2.109375 0.0625 C 2.046875 -0.0625 1.976562 -0.175781 1.90625 -0.28125 C 1.832031 -0.382812 1.75 -0.484375 1.65625 -0.578125 C 1.5625 -0.671875 1.460938 -0.765625 1.359375 -0.859375 C 1.253906 -0.953125 1.15625 -1.046875 1.0625 -1.140625 C 0.96875 -1.234375 0.875 -1.332031 0.78125 -1.4375 C 0.695312 -1.539062 0.625 -1.648438 0.5625 -1.765625 C 0.5625 -1.660156 0.5625 -1.554688 0.5625 -1.453125 C 0.5625 -1.359375 0.554688 -1.257812 0.546875 -1.15625 C 0.546875 -1.0625 0.539062 -0.96875 0.53125 -0.875 C 0.53125 -0.789062 0.53125 -0.710938 0.53125 -0.640625 C 0.53125 -0.566406 0.523438 -0.503906 0.515625 -0.453125 C 0.515625 -0.398438 0.507812 -0.359375 0.5 -0.328125 Z M 0.25 0.03125 C 0.238281 0.03125 0.234375 0.03125 0.234375 0.03125 Z M 0.25 0.03125 "/></g></g></g><g fill="#000000" fill-opacity="1"><g transform="translate(20.213792, 17.791591)"><g><path d="M 1.0625 -0.21875 C 0.988281 -0.175781 0.929688 -0.140625 0.890625 -0.109375 C 0.859375 -0.0859375 0.820312 -0.0664062 0.78125 -0.046875 C 0.75 -0.0234375 0.71875 -0.0078125 0.6875 0 C 0.65625 0.0078125 0.617188 0.015625 0.578125 0.015625 C 0.523438 0.015625 0.476562 0.0078125 0.4375 0 C 0.394531 0 0.359375 0 0.328125 0 C 0.304688 0 0.285156 0 0.265625 0 C 0.242188 0 0.21875 0.00390625 0.1875 0.015625 C 0.226562 -0.015625 0.257812 -0.046875 0.28125 -0.078125 C 0.3125 -0.109375 0.332031 -0.144531 0.34375 -0.1875 C 0.363281 -0.238281 0.378906 -0.296875 0.390625 -0.359375 C 0.398438 -0.429688 0.40625 -0.515625 0.40625 -0.609375 L 0.40625 -2.375 C 0.375 -2.375 0.332031 -2.367188 0.28125 -2.359375 C 0.226562 -2.359375 0.171875 -2.351562 0.109375 -2.34375 C 0.171875 -2.394531 0.226562 -2.429688 0.28125 -2.453125 C 0.332031 -2.484375 0.375 -2.503906 0.40625 -2.515625 C 0.445312 -2.523438 0.484375 -2.535156 0.515625 -2.546875 C 0.554688 -2.535156 0.601562 -2.53125 0.65625 -2.53125 C 0.707031 -2.539062 0.753906 -2.546875 0.796875 -2.546875 C 0.835938 -2.554688 0.878906 -2.5625 0.921875 -2.5625 C 0.960938 -2.570312 0.992188 -2.582031 1.015625 -2.59375 C 0.953125 -2.550781 0.898438 -2.515625 0.859375 -2.484375 C 0.816406 -2.460938 0.773438 -2.445312 0.734375 -2.4375 C 0.734375 -2.226562 0.726562 -2.039062 0.71875 -1.875 C 0.71875 -1.707031 0.710938 -1.554688 0.703125 -1.421875 C 0.703125 -1.296875 0.703125 -1.1875 0.703125 -1.09375 C 0.703125 -1 0.703125 -0.914062 0.703125 -0.84375 C 0.703125 -0.695312 0.703125 -0.59375 0.703125 -0.53125 C 0.703125 -0.488281 0.691406 -0.445312 0.671875 -0.40625 C 0.671875 -0.363281 0.660156 -0.320312 0.640625 -0.28125 C 0.617188 -0.238281 0.59375 -0.203125 0.5625 -0.171875 C 0.582031 -0.171875 0.601562 -0.171875 0.625 -0.171875 C 0.644531 -0.171875 0.664062 -0.171875 0.6875 -0.171875 C 0.738281 -0.171875 0.785156 -0.171875 0.828125 -0.171875 C 0.878906 -0.179688 0.921875 -0.191406 0.953125 -0.203125 C 0.992188 -0.203125 1.03125 -0.207031 1.0625 -0.21875 Z M 1.0625 -0.21875 "/></g></g></g><g fill="#000000" fill-opacity="1"><g transform="translate(21.597285, 17.791591)"><g><path d="M 1.53125 -1.375 C 1.519531 -1.363281 1.503906 -1.351562 1.484375 -1.34375 C 1.460938 -1.332031 1.4375 -1.316406 1.40625 -1.296875 C 1.375 -1.273438 1.332031 -1.242188 1.28125 -1.203125 C 1.28125 -1.210938 1.273438 -1.222656 1.265625 -1.234375 C 1.265625 -1.242188 1.253906 -1.253906 1.234375 -1.265625 C 1.210938 -1.265625 1.1875 -1.265625 1.15625 -1.265625 C 1.113281 -1.265625 1.050781 -1.257812 0.96875 -1.25 C 0.894531 -1.25 0.8125 -1.242188 0.71875 -1.234375 C 0.71875 -1.046875 0.710938 -0.894531 0.703125 -0.78125 C 0.703125 -0.664062 0.703125 -0.578125 0.703125 -0.515625 C 0.703125 -0.429688 0.703125 -0.375 0.703125 -0.34375 C 0.703125 -0.320312 0.691406 -0.296875 0.671875 -0.265625 C 0.671875 -0.253906 0.660156 -0.234375 0.640625 -0.203125 C 0.617188 -0.179688 0.585938 -0.164062 0.546875 -0.15625 L 1.34375 -0.15625 C 1.375 -0.15625 1.410156 -0.15625 1.453125 -0.15625 C 1.484375 -0.15625 1.515625 -0.160156 1.546875 -0.171875 C 1.585938 -0.179688 1.628906 -0.195312 1.671875 -0.21875 C 1.609375 -0.15625 1.546875 -0.109375 1.484375 -0.078125 C 1.429688 -0.0546875 1.382812 -0.0351562 1.34375 -0.015625 C 1.28125 -0.00390625 1.222656 0 1.171875 0 C 1.054688 0 0.945312 0 0.84375 0 C 0.75 0 0.660156 0 0.578125 0 C 0.492188 0.0078125 0.421875 0.015625 0.359375 0.015625 C 0.304688 0.0234375 0.269531 0.0351562 0.25 0.046875 C 0.28125 0.00390625 0.304688 -0.03125 0.328125 -0.0625 C 0.347656 -0.09375 0.363281 -0.128906 0.375 -0.171875 C 0.382812 -0.222656 0.390625 -0.273438 0.390625 -0.328125 C 0.398438 -0.378906 0.40625 -0.441406 0.40625 -0.515625 L 0.40625 -1.234375 C 0.363281 -1.234375 0.328125 -1.234375 0.296875 -1.234375 C 0.265625 -1.234375 0.234375 -1.238281 0.203125 -1.25 L 0.40625 -1.34375 C 0.40625 -1.40625 0.398438 -1.46875 0.390625 -1.53125 C 0.390625 -1.601562 0.390625 -1.675781 0.390625 -1.75 C 0.390625 -1.832031 0.390625 -1.921875 0.390625 -2.015625 C 0.390625 -2.109375 0.390625 -2.207031 0.390625 -2.3125 C 0.335938 -2.3125 0.285156 -2.3125 0.234375 -2.3125 C 0.191406 -2.320312 0.15625 -2.328125 0.125 -2.328125 L 0.4375 -2.5 C 0.664062 -2.5 0.859375 -2.5 1.015625 -2.5 C 1.171875 -2.5 1.300781 -2.503906 1.40625 -2.515625 C 1.519531 -2.515625 1.617188 -2.519531 1.703125 -2.53125 C 1.734375 -2.53125 1.753906 -2.523438 1.765625 -2.515625 C 1.785156 -2.503906 1.789062 -2.492188 1.78125 -2.484375 C 1.78125 -2.484375 1.773438 -2.476562 1.765625 -2.46875 C 1.753906 -2.457031 1.742188 -2.453125 1.734375 -2.453125 C 1.722656 -2.453125 1.707031 -2.441406 1.6875 -2.421875 C 1.664062 -2.410156 1.632812 -2.390625 1.59375 -2.359375 C 1.550781 -2.335938 1.492188 -2.300781 1.421875 -2.25 C 1.453125 -2.28125 1.460938 -2.300781 1.453125 -2.3125 C 1.453125 -2.320312 1.445312 -2.332031 1.4375 -2.34375 C 1.414062 -2.34375 1.394531 -2.34375 1.375 -2.34375 C 1.351562 -2.34375 1.316406 -2.34375 1.265625 -2.34375 C 1.222656 -2.34375 1.171875 -2.335938 1.109375 -2.328125 C 1.054688 -2.328125 0.992188 -2.328125 0.921875 -2.328125 C 0.859375 -2.328125 0.789062 -2.328125 0.71875 -2.328125 C 0.71875 -2.140625 0.71875 -1.96875 0.71875 -1.8125 C 0.71875 -1.664062 0.71875 -1.53125 0.71875 -1.40625 C 0.832031 -1.414062 0.9375 -1.421875 1.03125 -1.421875 C 1.125 -1.421875 1.207031 -1.421875 1.28125 -1.421875 C 1.363281 -1.429688 1.429688 -1.4375 1.484375 -1.4375 C 1.523438 -1.4375 1.550781 -1.429688 1.5625 -1.421875 C 1.582031 -1.421875 1.585938 -1.414062 1.578125 -1.40625 C 1.578125 -1.40625 1.570312 -1.398438 1.5625 -1.390625 C 1.550781 -1.378906 1.539062 -1.375 1.53125 -1.375 Z M 1.53125 -1.375 "/></g></g></g></svg>